<svg width="150" height="64" viewBox="0 0 150 64" fill="none" xmlns="http://www.w3.org/2000/svg">
<g clip-path="url(#clip0_615_3161)">
<path d="M0.638298 31.3145C1.17021 28.5746 3.61702 26.6777 7.02128 26.6777C10.9574 26.6777 14.0426 28.3638 14.0426 33.6329V43.4333H10.6383L10.2128 41.3257C9.04255 42.8011 7.44681 43.7495 5.10638 43.7495C2.23404 43.7495 0 41.958 0 38.6912C0 35.4244 2.97872 33.3167 7.12766 33.3167H9.89362V32.5791C9.89362 30.6822 8.51064 30.1553 6.91489 30.1553C5.74468 30.1553 4.57447 30.5768 4.04255 32.0522L0.638298 31.3145ZM6.06383 40.2719C7.97872 40.2719 9.89362 39.0073 9.89362 36.8997V36.5836H7.23404C5.42553 36.4782 4.3617 37.2159 4.3617 38.6912C4.3617 39.4289 5 40.2719 6.06383 40.2719Z" fill="#465D72"/>
<path d="M80.8492 31.3145C81.3811 28.5746 83.828 26.6777 87.2322 26.6777C91.1684 26.6777 94.2535 28.3638 94.2535 33.6329V43.4333H90.8492L90.4237 41.3257C89.2535 42.8011 87.6577 43.7495 85.3173 43.7495C82.445 43.7495 80.2109 41.958 80.2109 38.6912C80.2109 35.4244 83.1897 33.3167 87.3386 33.3167H90.1045V32.5791C90.1045 30.6822 88.7216 30.1553 87.1258 30.1553C85.9556 30.1553 84.7854 30.5768 84.2535 32.0522L80.8492 31.3145ZM86.2748 40.2719C88.1897 40.2719 90.1045 39.0073 90.1045 36.8997V36.5836H87.3386C85.5301 36.5836 84.4663 37.2159 84.4663 38.6912C84.5726 39.4289 85.2109 40.2719 86.2748 40.2719Z" fill="#465D72"/>
<path d="M97.9805 43.5387V26.8885H102.129V29.6284C103.3 27.6262 105.215 26.6777 107.023 26.6777C107.768 26.6777 108.406 26.7831 109.044 26.9939L108.3 30.7876C107.768 30.4715 107.236 30.2607 106.597 30.2607C104.151 30.2607 102.129 32.2629 102.129 37.532V43.4333L97.9805 43.5387Z" fill="#465D72"/>
<path d="M117.874 26.6783C119.576 26.6783 121.171 27.5213 121.916 28.4697V20.25H126.065V43.5392H121.916V41.8531C121.384 42.6962 119.895 43.8554 117.874 43.8554C112.874 43.8554 110.32 40.3778 110.32 35.3195C110.32 30.2612 112.874 26.6783 117.874 26.6783ZM118.512 40.2724C120.639 40.2724 122.342 38.4809 122.342 35.2141C122.342 31.9473 120.639 30.1558 118.512 30.1558C116.384 30.1558 114.682 31.9473 114.682 35.2141C114.682 38.4809 116.384 40.2724 118.512 40.2724Z" fill="#465D72"/>
<path d="M140.956 29.3121L138.509 31.5251C137.765 30.4713 136.594 30.0498 135.743 30.0498C134.892 30.0498 134.148 30.5767 134.148 31.4197C134.148 32.1574 134.786 32.6843 135.743 33.0004C138.084 33.8435 141.807 34.5811 141.807 38.0587C141.807 41.1148 139.467 43.5385 135.85 43.5385C132.339 43.5385 129.999 41.1148 129.254 39.1125L132.552 37.3211C133.19 38.9018 134.254 40.061 135.956 40.061C137.233 40.061 138.084 39.4287 138.084 38.2695C138.084 36.8995 135.956 36.5834 133.935 35.7403C132.126 35.0027 130.53 33.8435 130.53 31.3143C130.53 28.7852 132.658 26.4668 135.85 26.4668C137.977 26.5722 139.999 27.7314 140.956 29.3121Z" fill="#465D72"/>
<path d="M55.2111 26.8887L52.2324 38.3752L49.36 26.8887H45.5303L42.7643 38.3752L40.4239 31.7362L40.1047 32.4739L38.8281 36.7945L40.9558 43.5389H44.5728L47.4451 32.79L50.3175 43.5389H54.0409L59.36 26.8887H55.2111Z" fill="#465D72"/>
<path d="M75.1065 26.8887L72.1278 38.3752L69.2555 26.8887H65.4257L62.6597 38.3752L60.3193 31.7362L60.0002 32.4739L58.6172 36.7945L60.8512 43.5389H64.4683L67.3406 32.79L70.2129 43.5389H73.83L79.2555 26.8887H75.1065Z" fill="#465D72"/>
<path d="M39.4686 26.8887L34.1494 43.4335H30.5324L27.6601 32.79L24.7877 43.5389H21.1707L15.8516 26.9941H20.0005L22.9792 38.3752L25.8516 26.9941H29.6813L32.5537 38.3752L35.5324 26.9941L39.4686 26.8887Z" fill="#465D72"/>
<path d="M147.235 38.1641C148.83 38.1641 150.001 39.3233 150.001 40.904C150.001 42.4847 148.83 43.6439 147.235 43.6439C145.639 43.6439 144.469 42.4847 144.469 40.904C144.469 39.3233 145.639 38.1641 147.235 38.1641Z" fill="#465D72"/>
</g>
<defs>
<clipPath id="clip0_615_3161">
<rect width="150" height="23.5" fill="white" transform="translate(0 20.25)"/>
</clipPath>
</defs>
</svg>
