<svg width="480" height="200" viewBox="0 0 480 200" fill="none" xmlns="http://www.w3.org/2000/svg">
<g clip-path="url(#clip0_1985_6884)">
<path d="M293.386 39.1793C295.618 38.4127 297.967 38.059 300.316 38C304.78 37.941 309.302 38.5896 313.648 39.592C320.99 41.243 328.096 43.8374 335.027 46.7266C349.475 52.9767 363.276 60.8188 376.197 69.7813C379.721 72.2577 383.186 74.7931 386.475 77.6234C387.885 78.9795 389.353 80.5126 389.882 82.5173C390.234 84.5221 389.588 86.7037 388.061 88.0009C386.593 89.475 384.302 89.8288 382.364 89.4161C380.426 89.1212 378.723 88.1189 377.02 87.2344C369.796 83.6377 362.278 80.5126 354.584 78.1541C351.178 77.0338 347.654 76.1493 344.189 75.2648C335.614 73.3191 326.922 72.0219 318.171 71.786C314.412 71.5502 310.594 71.727 306.836 72.0808C311.886 80.0409 317.583 87.5292 323.515 94.8407C324.749 96.2558 325.16 98.4375 324.396 100.147C323.222 102.683 320.109 104.216 317.407 103.331C316.115 102.978 315.293 101.857 314.353 100.973C312.004 98.1426 309.655 95.3124 307.482 92.3053C304.545 88.5316 301.843 84.5811 299.083 80.6305C297.615 78.3899 296.029 76.2083 294.796 73.8497C280.935 76.4441 267.779 81.8688 255.387 88.5906C251.217 90.9491 247.106 93.3666 243.229 96.02C240.41 97.8478 237.826 99.9705 235.125 101.916C233.891 102.919 232.188 103.096 230.661 102.86C228.664 102.27 226.785 100.796 226.374 98.6733C226.021 97.553 226.197 96.3148 226.667 95.2534C227.196 94.2511 228.018 93.4256 228.899 92.659C236.182 86.5858 244.228 81.397 252.626 76.9158C269.424 68.1892 287.748 62.0571 306.718 60.8778C311.005 60.8778 315.352 60.7009 319.639 61.0547C328.39 61.6443 337.082 63.1184 345.54 65.359C352.529 67.2458 359.341 69.7813 366.096 72.4936C356.875 67.1279 347.478 62.0571 337.611 57.9296C330.915 55.0404 323.985 52.5639 316.879 50.795C312.121 49.6747 307.247 48.8493 302.372 49.0261C301.55 49.0851 300.669 49.262 299.847 49.4978C298.966 49.7337 298.378 50.3823 297.673 50.854C296.675 52.0922 296.851 53.8022 297.262 55.2763C297.673 56.4555 298.202 57.5169 298.789 58.5782C298.966 58.873 298.966 59.2268 299.024 59.5216C295.324 59.8164 291.683 60.524 288.1 61.3495C286.808 58.6961 285.575 55.9838 285.34 52.9767C285.222 50.7361 285.164 48.3775 285.986 46.1959C287.043 42.835 290.038 40.2406 293.386 39.1793Z" fill="white"/>
<path d="M102.744 126.681C104.036 125.62 106.151 125.796 107.149 127.094C107.854 128.037 108.206 129.157 108.617 130.219C112.083 139.594 115.548 148.91 119.013 158.285C119.365 159.229 119.835 160.408 119.072 161.292C118.249 162.118 116.722 162.295 115.783 161.469C115.195 160.88 115.019 160.054 114.725 159.288C113.903 156.87 112.964 154.453 112.141 151.976C108.206 151.917 104.33 151.976 100.395 151.976C99.2791 151.976 98.222 151.917 97.1061 152.094C96.2838 154.983 95.1679 157.755 94.1695 160.585C93.6997 162.236 91.2329 162.531 90.2345 161.233C89.5885 160.349 90.0583 159.229 90.4107 158.285C94.052 148.497 97.6934 138.709 101.335 128.98L102.744 126.681ZM104.741 130.808L98.6918 148.026C102.627 148.026 106.503 148.026 110.438 148.026C110.849 148.144 110.732 147.731 110.673 147.554C108.676 142.011 106.621 136.41 104.741 130.808ZM186.965 126.091C187.846 125.796 188.962 125.973 189.491 126.74C189.96 127.271 189.902 128.037 189.96 128.686C189.96 138.945 189.96 149.264 189.96 159.524C190.019 160.408 189.608 161.41 188.786 161.764C187.905 162.059 186.789 162 186.143 161.233C185.673 160.703 185.614 159.936 185.614 159.288C185.614 149.028 185.614 138.709 185.614 128.45C185.556 127.506 185.967 126.386 186.965 126.091ZM242.995 126.799C243.876 125.914 245.285 125.796 246.401 126.15C247.517 126.563 248.281 127.624 248.633 128.745C250.219 134.346 251.805 139.889 253.39 145.49C254.33 148.556 255.152 151.622 255.916 154.747C256.973 149.971 258.5 145.254 259.792 140.537C260.849 136.705 261.965 132.931 263.081 129.098C263.316 128.273 263.61 127.33 264.314 126.799C265.548 125.62 267.838 125.737 268.895 127.153C269.541 128.037 269.776 129.098 269.894 130.16C271.421 139.653 273.065 149.087 274.592 158.58C274.651 159.465 274.945 160.585 274.24 161.351C273.653 162.118 272.478 162.059 271.656 161.764C270.775 161.41 270.599 160.349 270.422 159.582C269.013 150.325 267.427 141.068 266.135 131.811C265.665 134.405 264.843 136.882 264.138 139.417C262.083 146.375 260.086 153.391 258.03 160.349C257.619 162.118 255.211 162.531 254.036 161.41C253.684 160.998 253.508 160.467 253.39 159.995C252.04 155.337 250.689 150.738 249.338 146.08C248.046 141.304 246.401 136.646 245.462 131.811C244.17 140.95 242.584 150.03 241.233 159.111C241.057 160.054 240.939 161.174 240 161.705C239.119 162.118 237.827 162.118 237.239 161.174C236.711 160.408 236.887 159.406 237.004 158.58C238.649 148.851 240.235 139.181 241.82 129.452C242.055 128.509 242.29 127.506 242.995 126.799ZM347.361 126.091C348.77 125.561 350.356 126.74 350.238 128.214C350.238 138.474 350.238 148.792 350.238 159.052C350.238 159.818 350.297 160.703 349.71 161.233C348.77 162.354 346.656 162.118 346.068 160.762C345.834 160.29 345.834 159.818 345.834 159.288C345.834 149.146 345.834 139.063 345.834 128.922C345.716 127.86 346.068 126.327 347.361 126.091ZM281.816 127.271C283.461 126.799 285.34 128.273 285.164 129.983C285.164 131.693 283.226 132.99 281.64 132.4C280.113 131.988 279.35 129.983 280.113 128.627C280.407 127.919 281.112 127.506 281.816 127.271ZM292.329 128.922C292.505 127.271 294.62 126.681 295.853 127.624C296.558 128.096 296.675 128.98 296.675 129.806C296.675 131.634 296.675 133.462 296.675 135.231C297.674 135.231 298.731 135.172 299.671 135.525C301.022 136.174 300.904 138.415 299.494 138.945C298.555 139.181 297.615 139.063 296.675 139.122C296.675 146.021 296.734 152.979 296.675 159.877C296.734 161.41 295.09 162.413 293.739 161.941C292.799 161.646 292.271 160.585 292.329 159.641C292.329 152.802 292.329 145.962 292.329 139.122C291.39 139.063 290.391 139.181 289.51 138.886C288.277 138.238 288.218 136.115 289.51 135.525C290.391 135.231 291.39 135.29 292.329 135.29C292.329 133.108 292.212 130.985 292.329 128.922ZM306.131 128.98C306.249 127.212 308.715 126.563 309.831 127.801C310.419 128.45 310.477 129.393 310.419 130.219C310.419 131.87 310.419 133.521 310.419 135.172C311.476 135.172 312.592 135.054 313.59 135.466C314.706 136.174 314.647 138.12 313.473 138.709C312.533 139.122 311.417 138.945 310.419 139.004C310.36 145.844 310.419 152.684 310.419 159.582C310.419 160.172 310.242 160.821 309.89 161.292C308.892 162.236 306.953 162.118 306.307 160.821C305.955 159.995 306.072 159.111 306.072 158.226C306.072 151.799 306.072 145.372 306.072 139.004C304.957 138.945 303.664 139.24 302.725 138.415C302.02 137.648 302.196 136.528 302.666 135.761C303.664 135.113 304.898 135.231 306.014 135.231C306.131 133.108 306.014 131.044 306.131 128.98ZM123.653 136.941C123.594 134.877 126.648 134.228 127.646 135.879C128.292 137 127.94 138.415 128.058 139.653C128.88 138.061 130.113 136.705 131.581 135.761C132.639 135.113 133.989 134.7 135.223 135.172C136.515 135.702 136.691 137.707 135.693 138.592C135.047 139.24 134.107 139.417 133.226 139.712C131.64 140.242 130.113 141.068 129.173 142.483C128.292 143.839 128.058 145.49 128.058 147.082C128.058 151.151 128.058 155.278 128.058 159.347C128.058 160.113 127.94 161.057 127.294 161.528C126.002 162.649 123.594 161.705 123.711 159.877C123.594 152.212 123.594 144.547 123.653 136.941ZM147.321 134.995C149.26 134.818 151.198 134.936 153.018 135.584C153.958 135.938 154.898 136.41 155.485 137.235C156.249 138.238 155.544 139.889 154.252 140.007C153.253 140.066 152.314 139.535 151.374 139.181C149.142 138.356 146.44 138.592 144.561 140.066C142.799 141.422 141.859 143.603 141.448 145.726C141.096 147.908 141.155 150.207 141.742 152.33C142.329 154.217 143.445 156.045 145.148 157.106C146.734 158.049 148.731 158.167 150.493 157.873C151.609 157.696 152.549 157.047 153.664 156.752C154.487 156.516 155.603 156.988 155.72 157.932C155.896 158.757 155.485 159.641 154.839 160.054C152.901 161.41 150.434 161.941 148.144 161.823C144.972 161.764 141.801 160.408 139.804 157.873C137.455 155.101 136.691 151.328 136.809 147.731C136.867 144.193 138.042 140.596 140.509 138.061C142.388 136.351 144.796 135.29 147.321 134.995ZM223.496 134.995C224.436 134.759 225.61 135.113 226.022 136.056C226.433 137.176 226.198 138.415 226.256 139.594C227.549 137.353 229.722 134.936 232.541 134.936C233.892 134.877 234.89 136.233 234.538 137.53C234.303 138.709 233.011 139.181 232.012 139.535C230.25 140.066 228.371 140.95 227.372 142.601C226.491 144.016 226.315 145.726 226.256 147.318C226.256 151.328 226.256 155.337 226.256 159.288C226.198 159.877 226.256 160.526 225.904 161.057C225.141 162.177 223.379 162.236 222.439 161.292C221.969 160.762 221.91 159.995 221.852 159.347C221.852 152.035 221.852 144.724 221.852 137.412C221.793 136.351 222.321 135.172 223.496 134.995ZM281.875 134.995C282.639 134.877 283.578 134.936 284.107 135.584C284.635 136.115 284.694 136.941 284.694 137.648C284.694 144.96 284.694 152.271 284.694 159.582C284.753 160.467 284.342 161.41 283.52 161.764C282.639 162.059 281.464 162.059 280.877 161.292C280.348 160.762 280.348 159.995 280.289 159.347V139.181C280.289 138.356 280.231 137.471 280.348 136.646C280.466 135.82 281.112 135.172 281.875 134.995ZM336.084 135.349C336.906 134.759 338.081 134.818 338.903 135.407C339.432 135.938 339.667 136.705 339.667 137.412C339.667 144.783 339.667 152.212 339.667 159.582C339.667 160.408 339.373 161.351 338.551 161.705C337.494 162.236 335.908 161.941 335.497 160.762C335.144 159.818 335.321 158.757 335.262 157.755C334.322 159.111 333.206 160.29 331.738 161.057C328.684 162.59 324.925 162.177 322.106 160.408C319.111 158.521 317.349 155.16 316.762 151.681C316.233 148.497 316.468 145.136 317.642 142.07C318.7 139.299 320.814 136.882 323.574 135.761C326.1 134.7 329.154 134.582 331.621 135.82C333.148 136.587 334.381 137.766 335.262 139.181C335.379 137.884 334.968 136.292 336.084 135.349ZM326.511 139.004C324.808 139.417 323.339 140.596 322.458 142.07C321.108 144.252 320.814 146.905 320.931 149.382C321.108 151.799 321.754 154.394 323.516 156.163C325.336 158.108 328.449 158.639 330.798 157.519C332.149 156.929 333.148 155.809 333.852 154.571C335.203 152.094 335.438 149.087 335.144 146.316C334.851 144.252 334.146 142.07 332.619 140.596C331.092 139.063 328.625 138.415 326.511 139.004ZM161.946 137.943C164.236 135.761 167.466 134.7 170.579 134.995C173.281 135.172 175.865 136.469 177.627 138.533C179.976 141.127 181.092 144.724 180.975 148.144C180.975 148.851 180.681 149.618 179.976 149.912C179.036 150.325 177.92 150.148 176.922 150.148C172.047 150.148 167.173 150.089 162.239 150.207C162.357 152.153 162.885 154.099 164.177 155.573C165.469 157.165 167.525 158.108 169.581 158.108C171.46 158.167 173.398 157.873 174.984 156.87C175.924 156.339 176.805 155.573 177.92 155.278C178.743 155.101 179.8 155.632 179.976 156.516C180.328 157.755 179.33 158.816 178.39 159.465C175.336 161.646 171.401 162.295 167.76 161.823C164.765 161.469 161.946 159.759 160.301 157.224C158.187 154.099 157.541 150.089 158.011 146.316C158.363 143.191 159.655 140.125 161.946 137.943ZM164.119 141.363C162.885 142.896 162.357 144.901 162.239 146.846C166.996 146.846 171.812 146.905 176.57 146.846C176.511 144.606 175.806 142.247 174.22 140.655C171.519 137.825 166.409 138.297 164.119 141.363ZM202.94 135.29C205.818 134.582 209.048 134.877 211.632 136.41C214.275 137.943 216.037 140.714 216.859 143.603C217.799 147.082 217.74 150.856 216.566 154.276C215.626 156.752 214.04 159.052 211.75 160.408C208.989 162.059 205.583 162.413 202.529 161.528C199.592 160.703 197.067 158.462 195.834 155.632C194.072 151.799 193.895 147.318 195.07 143.309C196.127 139.535 199.064 136.233 202.94 135.29ZM204.115 139.004C202.47 139.476 201.061 140.655 200.18 142.129C198.829 144.488 198.535 147.259 198.77 149.912C199.005 152.153 199.651 154.394 201.178 156.045C203.116 158.108 206.464 158.698 208.931 157.283C210.458 156.457 211.574 154.983 212.22 153.391C213.159 150.797 213.336 147.908 212.748 145.195C212.337 143.191 211.339 141.186 209.635 139.889C208.108 138.827 205.994 138.533 204.115 139.004Z" fill="white"/>
</g>
<defs>
<clipPath id="clip0_1985_6884">
<rect width="300" height="124" fill="white" transform="translate(90 38)"/>
</clipPath>
</defs>
</svg>
