<svg width="130" height="64" viewBox="0 0 130 64" fill="none" xmlns="http://www.w3.org/2000/svg">
<g clip-path="url(#clip0_615_2889)">
<path d="M14.6607 18.0351C17.0291 18.4962 19.0968 19.8409 20.5254 21.7234C21.8788 23.4907 22.7058 25.7574 22.7058 28.1778C22.7058 29.753 21.8412 32.1735 20.2622 35.1317C20.7509 35.977 21.2773 36.899 21.8788 37.8979C23.8712 34.3634 25.375 30.7904 25.375 28.1778C25.375 25.2196 24.4727 22.4918 22.9314 20.3019C21.4652 18.2272 19.4727 16.5752 17.1043 15.6916C15.8261 15.1537 14.3976 14.8848 12.8938 14.8848C5.9765 14.8848 0.375 20.8398 0.375 28.1778C0.375 33.5181 6.6532 42.7772 10.375 47.8101C10.9765 48.6553 11.9164 49.1164 12.8938 49.1164C13.8712 49.1164 14.8111 48.6553 15.4126 47.8101C16.2021 46.7728 17.0667 45.5434 18.0066 44.1987C17.4427 43.3535 16.9164 42.5083 16.39 41.663C15.4502 43.0461 14.4352 44.4676 13.3449 45.966C13.157 46.2349 12.7058 46.2349 12.4803 45.966C6.57801 38.0132 3.08177 31.3667 3.08177 28.1778C3.08177 22.4918 7.48026 17.8431 12.8938 17.8431C13.4953 17.8431 14.0592 17.9199 14.6607 18.0351Z" fill="#465D72"/>
<path d="M20.3757 44.1987C21.278 45.5434 22.1802 46.7728 22.9697 47.8101C23.5712 48.6553 24.5111 49.1164 25.4885 49.1164C26.466 49.1164 27.4058 48.6553 28.0073 47.8101C31.6915 42.7772 37.9697 33.4797 37.9697 28.1778C37.9697 20.8398 32.3682 14.8848 25.4509 14.8848C23.9472 14.8848 22.5186 15.1537 21.2028 15.6916C22.1051 16.3831 22.9697 17.1515 23.684 18.0351C24.2479 17.9199 24.8494 17.8431 25.4509 17.8431C30.8645 17.8431 35.263 22.4534 35.263 28.1778C35.263 31.3667 31.7667 38.0132 25.8645 45.966C25.6765 46.2349 25.2254 46.2349 24.9998 45.966C23.9096 44.4676 22.8945 43.0461 21.9547 41.663C20.3757 39.281 19.0224 37.0911 18.0073 35.1317C16.4284 32.135 15.6013 29.7146 15.6013 28.1778C15.6013 25.719 16.4284 23.4907 17.7817 21.7234C17.0675 21.1087 16.2404 20.6477 15.3381 20.3019C13.7968 22.4918 12.8945 25.2196 12.8945 28.1778C12.8945 30.7904 14.3983 34.3634 16.3908 37.8979C17.6314 40.0878 19.0224 42.2393 20.3757 44.1987Z" fill="#465D72"/>
<path d="M58.1587 25.5263V36.3606C58.1587 41.3551 55.5647 43.9676 50.5647 43.9676C45.5271 43.9676 43.1211 41.3935 43.1211 36.3222V25.3727C43.1211 24.6811 43.6474 24.0664 44.4369 24.0664C45.264 24.0664 45.8279 24.6811 45.8279 25.3727V36.2453C45.8279 39.972 47.3316 41.5088 50.5647 41.5088C53.7602 41.5088 55.4519 40.0488 55.4519 36.3222V25.5263C55.4519 24.7195 56.0158 24.0664 56.7677 24.0664C57.5948 24.0664 58.1587 24.7195 58.1587 25.5263Z" fill="#465D72"/>
<path d="M73.6072 36.9362C73.6072 41.5081 71.1636 43.967 66.8027 43.967C65.6749 43.967 64.735 43.7749 63.9831 43.506V47.54C63.9831 48.2315 63.4944 48.8078 62.6674 48.8078C61.8779 48.8078 61.3516 48.2315 61.3516 47.54V31.4807C61.3516 30.7892 61.8403 30.3281 62.4794 30.3281C63.1937 30.3281 63.532 30.7892 63.6072 31.4807L63.6824 32.518C64.4719 31.2502 65.8252 30.3281 67.8553 30.3281C71.4268 30.3281 73.6072 32.4412 73.6072 36.9362ZM70.9756 37.0899C70.9756 33.978 69.6222 32.6333 67.4042 32.6333C65.4117 32.6333 63.9831 34.0548 63.9831 35.8989H63.9456V41.124C64.6598 41.4313 65.5245 41.7387 66.6523 41.7387C69.3215 41.7002 70.9756 40.3556 70.9756 37.0899Z" fill="#465D72"/>
<path d="M92.2172 29.253C92.2172 29.983 91.6909 30.3672 91.0894 30.3672C90.4127 30.3672 90.112 30.1367 89.924 29.5219C89.5105 28.5615 88.6834 26.4868 85.4127 26.4868C81.7285 26.4868 79.3225 28.8688 79.3225 33.7865C79.3225 38.9347 81.9165 41.4704 86.127 41.4704C88.2699 41.4704 89.6232 40.8172 90.2623 40.5867C90.5255 40.5099 90.7511 40.433 91.0518 40.433C91.6909 40.433 92.1044 40.9325 92.1044 41.5472C92.1044 42.2003 91.8413 42.5077 91.3526 42.815C90.1496 43.5066 87.8939 43.9676 85.8262 43.9676C80.112 43.9676 76.5781 40.5099 76.5781 33.9786C76.5781 27.5626 80.0368 24.0664 85.3375 24.0664C90.112 24.0664 92.2172 26.9479 92.2172 29.253Z" fill="#465D72"/>
<path d="M95.0391 26.2569C95.0391 25.2196 95.7533 24.4512 96.7308 24.4512C97.7458 24.4512 98.4225 25.2196 98.4225 26.2569C98.4225 27.2942 97.7458 28.0626 96.7308 28.0626C95.7533 28.0626 95.0391 27.2942 95.0391 26.2569ZM97.9714 31.5203V42.6619C97.9714 43.3535 97.4827 43.9298 96.6556 43.9298C95.8661 43.9298 95.3398 43.3535 95.3398 42.6619V31.5203C95.3398 30.8288 95.8661 30.2525 96.6556 30.2525C97.4451 30.2909 97.9714 30.8288 97.9714 31.5203Z" fill="#465D72"/>
<path d="M105.339 32.7499V39.8959C105.339 41.2406 105.94 41.5864 106.843 41.5864C107.068 41.5864 107.294 41.548 107.745 41.5095C108.497 41.3943 108.873 41.9706 108.873 42.5469C108.873 43.0847 108.572 43.6226 107.933 43.7379C107.407 43.8147 106.805 43.8915 106.204 43.8915C103.91 43.8915 102.782 43.0463 102.782 40.088V32.7499H101.467C100.903 32.7499 100.414 32.2889 100.414 31.6358C100.414 30.9442 100.903 30.5216 101.467 30.5216H102.782V27.9475C102.782 27.256 103.309 26.6797 104.098 26.6797C104.888 26.6797 105.376 27.256 105.376 27.9475V30.5216H107.858C108.459 30.5216 108.91 30.9442 108.91 31.6358C108.91 32.2889 108.459 32.7499 107.858 32.7499H105.339Z" fill="#465D72"/>
<path d="M122.595 31.4045C122.595 31.635 122.52 31.904 122.408 32.1345L116.844 45.6965C115.904 47.9633 114.513 48.7316 112.483 48.7316C112.032 48.7316 111.806 48.6932 111.618 48.6932C110.941 48.6164 110.528 48.1938 110.528 47.5406C110.528 46.9259 110.904 46.3881 111.58 46.4265C111.768 46.4265 111.956 46.4649 112.37 46.4649C113.648 46.4649 114.4 46.0423 114.776 45.005L115.34 43.545L110.528 32.1729C110.415 31.9424 110.34 31.6735 110.34 31.443C110.34 30.6746 110.941 30.252 111.58 30.252C112.069 30.252 112.595 30.5593 112.821 31.1356L116.58 40.3947L120.189 31.0972C120.415 30.5209 120.866 30.2904 121.43 30.2904C121.956 30.252 122.595 30.6361 122.595 31.4045Z" fill="#465D72"/>
<path d="M129.624 31.9803C129.624 32.1724 129.512 32.2877 129.324 32.2877C129.136 32.2877 129.023 32.1724 129.023 31.9803L128.985 30.2515L128.309 31.7882C128.233 31.9419 128.121 32.0187 128.008 32.0187C127.895 32.0187 127.782 31.9419 127.707 31.8266L126.993 30.213L126.955 31.9803C126.955 32.1724 126.842 32.2877 126.655 32.2877C126.467 32.2877 126.354 32.1724 126.354 31.9803L126.391 30.0209H125.452V31.9803C125.452 32.1724 125.339 32.2877 125.151 32.2877C124.963 32.2877 124.85 32.1724 124.85 31.9803V30.0209H124.173C124.023 30.0209 123.91 29.9057 123.91 29.752C123.91 29.5983 124.023 29.5215 124.173 29.5215H126.692C126.993 29.5215 127.218 29.6752 127.369 29.9057L127.97 31.2888L128.609 29.8673C128.722 29.6367 128.91 29.5215 129.098 29.5215C129.361 29.5215 129.549 29.7136 129.549 30.0209L129.624 31.9803Z" fill="#465D72"/>
</g>
<defs>
<clipPath id="clip0_615_2889">
<rect width="130" height="35" fill="white" transform="translate(0 14.5)"/>
</clipPath>
</defs>
</svg>
