<svg width="106" height="32" viewBox="0 0 106 32" fill="none" xmlns="http://www.w3.org/2000/svg">
<g clip-path="url(#clip0_615_2655)">
<path fill-rule="evenodd" clip-rule="evenodd" d="M28.5706 7.25586L19.6027 24.7559H11.1966L14.9351 17.4966H14.7622C11.6937 21.5151 7.06925 24.1509 0.5 24.7559V17.6046C0.5 17.6046 4.71383 17.367 7.1773 14.7528H0.5V7.25586H7.99846V13.4349H8.17133L11.2399 7.25586H16.9231V13.3917H17.096L20.251 7.25586H28.5706Z" fill="#465D72"/>
<path d="M77.3828 22.8333H79.8031V8.96289H77.3828V22.8333Z" fill="#465D72"/>
<path fill-rule="evenodd" clip-rule="evenodd" d="M64.0777 22.682C64.5963 22.8981 65.1366 23.0061 65.6768 23.0061C66.5844 23.0061 67.3839 22.7901 68.0754 22.358C68.7885 21.9259 69.3288 21.3209 69.7177 20.5431C70.1067 19.7654 70.3012 18.9012 70.3012 17.9073C70.3012 16.9135 70.1067 16.0493 69.6961 15.2715C69.2856 14.4938 68.7453 13.9104 68.0322 13.4783C67.3191 13.0462 66.4979 12.8302 65.5904 12.8518C65.0069 12.8518 64.4667 12.9598 63.9264 13.1975C63.3862 13.4135 62.954 13.7376 62.6083 14.1481C62.5866 14.1697 62.565 14.2129 62.5218 14.2345V8.96289H60.1016V22.8117H62.5002V21.5154C62.565 21.6018 62.6299 21.6666 62.6947 21.7314C63.0837 22.1419 63.5375 22.466 64.0777 22.682ZM66.5412 20.4351C66.1522 20.6728 65.6984 20.8024 65.1798 20.8024C64.6828 20.8024 64.2073 20.6728 63.7968 20.4351C63.3862 20.1759 63.0404 19.8302 62.8027 19.3981C62.565 18.966 62.4354 18.4691 62.4354 17.9073C62.4354 17.3456 62.5434 16.8487 62.7811 16.4166C63.0188 15.9845 63.3646 15.6388 63.7752 15.3796C64.1857 15.1419 64.6611 15.0123 65.1582 15.0123C65.6552 15.0123 66.109 15.1203 66.5196 15.358C66.9301 15.5956 67.2327 15.9413 67.4488 16.3734C67.6648 16.8055 67.7729 17.3024 67.7729 17.8857C67.7729 18.4475 67.6648 18.9444 67.4488 19.3981C67.2543 19.8518 66.9517 20.1975 66.5412 20.4351Z" fill="#465D72"/>
<path d="M32.0703 9.80469H34.8363L37.2998 18.8139L39.9361 9.80469H42.2267L45.0792 18.6411L47.4562 9.80469H49.9845L46.2461 22.8325H43.869L40.9734 14.1905L38.3154 22.8325H35.9168L32.0703 9.80469Z" fill="#465D72"/>
<path fill-rule="evenodd" clip-rule="evenodd" d="M54.0488 23.0508C53.0764 23.0508 52.212 22.8348 51.4557 22.4243C50.6777 21.9922 50.0943 21.3872 49.6405 20.6094C49.2083 19.8317 48.9922 18.9459 48.9922 17.9736C48.9922 17.0014 49.2083 16.1372 49.6621 15.3594C50.1159 14.5817 50.7209 13.9767 51.4773 13.5446C52.2552 13.1125 53.098 12.8965 54.0488 12.8965C55.1076 12.8965 56.0369 13.1341 56.8364 13.6094C57.6359 14.0848 58.241 14.7545 58.63 15.6187C59.0406 16.4829 59.1702 17.4767 59.0622 18.5786H51.4773C51.4989 19.0323 51.6069 19.4212 51.8014 19.7885C52.0175 20.199 52.3416 20.5014 52.7306 20.7175C53.1412 20.9335 53.5734 21.0632 54.0704 21.0632C54.4378 21.0632 54.8051 20.9983 55.1293 20.8687C55.4534 20.7391 55.7343 20.5662 55.9504 20.3502C56.1881 20.1341 56.3394 19.8749 56.4474 19.6156H58.9757C58.8245 20.2854 58.5219 20.8903 58.0465 21.4304C57.5927 21.949 57.0093 22.3594 56.3178 22.6619C55.6479 22.9212 54.8916 23.0724 54.0488 23.0508ZM51.823 16.1156C51.6718 16.3533 51.5853 16.6341 51.5205 16.915H56.5555C56.5123 16.5477 56.4042 16.2236 56.2313 15.9428C56.0152 15.5971 55.7343 15.3162 55.367 15.1434C54.9996 14.949 54.589 14.8409 54.1352 14.8409C53.6382 14.8409 53.206 14.949 52.7954 15.1866C52.3849 15.4027 52.0607 15.7051 51.823 16.1156Z" fill="#465D72"/>
<path d="M72.0949 13.0677C72.0949 12.2683 72.2678 11.577 72.6352 10.972C73.0025 10.3455 73.4995 9.87018 74.1478 9.5245C74.7961 9.17882 75.574 9.00598 76.4384 8.98438V11.1449C76.0278 11.1449 75.6821 11.2313 75.4012 11.4041C75.1203 11.5554 74.9042 11.793 74.7529 12.0955C74.6016 12.3764 74.5368 12.7004 74.5152 13.0677H76.3952V15.1202H74.5152V22.8331H72.0949V15.1202H70.5391V13.0677H72.0949Z" fill="#465D72"/>
<path fill-rule="evenodd" clip-rule="evenodd" d="M85.9475 23.0276C84.9534 23.0276 84.0891 22.8116 83.3111 22.3795C82.5332 21.9474 81.9281 21.3424 81.4959 20.5646C81.0638 19.7869 80.8477 18.9227 80.8477 17.9288C80.8477 16.935 81.0638 16.0708 81.4959 15.293C81.9281 14.5153 82.5548 13.9103 83.3111 13.4782C84.0891 13.0461 84.975 12.8301 85.9475 12.8301C86.9415 12.8301 87.8275 13.0461 88.6054 13.4782C89.3834 13.9103 90.01 14.5153 90.4422 15.293C90.8744 16.0708 91.0905 16.9566 91.1121 17.9288C91.1121 18.9011 90.8744 19.7869 90.4422 20.5646C90.01 21.3424 89.405 21.9258 88.627 22.3795C87.8275 22.8116 86.9415 23.0276 85.9475 23.0276ZM85.9475 20.8239C86.4661 20.8239 86.9199 20.7159 87.3305 20.4782C87.741 20.2406 88.0436 19.8949 88.2597 19.4628C88.4758 19.0307 88.5838 18.5338 88.5838 17.9721C88.5838 17.4103 88.4758 16.9134 88.2597 16.4597C88.0436 16.0276 87.741 15.6819 87.3305 15.4443C86.9199 15.2066 86.4661 15.077 85.9475 15.077C85.4288 15.077 84.9751 15.2066 84.5861 15.4443C84.1971 15.6819 83.8946 16.006 83.6569 16.4597C83.4408 16.8918 83.3327 17.3887 83.3327 17.9721C83.3327 18.5338 83.4408 19.0307 83.6569 19.4628C83.873 19.8949 84.1971 20.2406 84.5861 20.4782C84.9751 20.6943 85.4288 20.8239 85.9475 20.8239Z" fill="#465D72"/>
<path d="M93.7012 13.0645H91L93.9173 22.8083H96.2727L98.1959 16.5861L100.27 22.8083H102.583L105.5 13.0645H103.058L101.416 19.1354L99.5789 13.0645H97.2235L95.4083 19.2651L93.7012 13.0645Z" fill="#465D72"/>
</g>
<defs>
<clipPath id="clip0_615_2655">
<rect width="105" height="17.5" fill="white" transform="translate(0.5 7.25)"/>
</clipPath>
</defs>
</svg>
