<svg width="36" height="32" viewBox="0 0 36 32" fill="none" xmlns="http://www.w3.org/2000/svg">
<g clip-path="url(#clip0_615_2619)">
<path fill-rule="evenodd" clip-rule="evenodd" d="M20.5142 9.42429C19.821 9.78491 19.5628 10.3942 19.5628 12.0766C19.5628 12.0766 19.9138 11.7396 20.4344 11.5518C20.8141 11.4157 21.1383 11.2076 21.3255 11.0715C21.9112 10.6452 22.0022 10.0968 22.0022 9.17277C22.0022 9.17277 21.0469 9.14719 20.5142 9.42429ZM16.4031 9.81841C15.8378 10.3132 15.6725 11.1021 15.6725 11.1021L13.801 18.3034L12.2444 12.4094C12.0928 11.7828 11.8196 11.0084 11.3869 10.4846C10.8362 9.81745 9.71667 9.77545 9.59757 9.77545C9.47799 9.77545 8.35847 9.81745 7.80722 10.4846C7.37507 11.0084 7.10187 11.7828 6.95021 12.4094L5.39368 18.3034L3.52167 11.1021C3.52167 11.1021 3.35688 10.3132 2.79153 9.81841C1.87472 9.01607 0.5 9.18745 0.5 9.18745L4.0841 22.6453C4.0841 22.6453 5.26632 22.7303 5.8584 22.4305C6.63521 22.0375 7.00514 21.7339 7.47569 19.9028C7.89472 18.2701 9.06674 13.4748 9.17611 13.1335C9.23056 12.965 9.2991 12.5619 9.59757 12.5619C9.90187 12.5619 9.96507 12.9646 10.0181 13.1335C10.1255 13.4753 11.2994 18.2701 11.719 19.9028C12.1895 21.7339 12.559 22.0375 13.3362 22.4305C13.9278 22.7303 15.1101 22.6453 15.1101 22.6453L18.6942 9.18745C18.6942 9.18745 17.3199 9.01607 16.4031 9.81841ZM22.001 11.3845C22.001 11.3845 21.7769 11.7292 21.265 12.0131C20.9369 12.1956 20.6214 12.3192 20.2831 12.4804C19.7163 12.7503 19.5627 13.051 19.5627 13.5096V13.6632V14.3718V14.3912V14.5509V22.6454C19.5627 22.6454 20.4673 22.7593 21.0589 22.4595C21.8202 22.0743 21.9952 21.7025 22.002 20.0288V11.8721L22.001 11.8726V11.3845ZM30.9347 15.9491L35.4823 9.23196C35.4823 9.23196 33.5631 8.90754 32.6127 9.76637C32.0046 10.3162 31.3245 11.3049 31.3245 11.3049L29.6514 13.7004C29.5702 13.8249 29.4637 13.9606 29.2941 13.9606C29.1244 13.9606 29.0184 13.8249 28.9373 13.7004L27.2641 11.3049C27.2641 11.3049 26.584 10.3162 25.9759 9.76637C25.0255 8.90754 23.1064 9.23196 23.1064 9.23196L27.6534 15.9491L23.118 22.6454C23.118 22.6454 25.1169 22.8964 26.0673 22.0366C26.6754 21.4873 27.2641 20.5932 27.2641 20.5932L28.9373 18.1982C29.0184 18.0732 29.1244 17.938 29.2941 17.938C29.4637 17.938 29.5702 18.0732 29.6514 18.1982L31.3245 20.5932C31.3245 20.5932 31.9473 21.4873 32.5554 22.0366C33.5062 22.8964 35.4701 22.6454 35.4701 22.6454L30.9347 15.9491Z" fill="#465D72"/>
</g>
<defs>
<clipPath id="clip0_615_2619">
<rect width="35" height="14" fill="white" transform="translate(0.5 9)"/>
</clipPath>
</defs>
</svg>
