<svg width="137" height="32" viewBox="0 0 137 32" fill="none" xmlns="http://www.w3.org/2000/svg">
<g clip-path="url(#clip0_615_2640)">
<path d="M38.556 9.54968L36.324 18.1892L34.092 9.54968H31.844L32.364 11.4033L30.404 18.4793L28.26 9.54968H26.1L29.14 20.8326H31.508L33.332 14.7963L35.036 20.8326H37.396L40.596 9.54968H38.556ZM61.268 12.8217C60.7798 12.708 60.2811 12.6458 59.78 12.6364C57.06 12.6364 55.572 14.4658 55.572 17.1496C55.572 19.8172 57.06 21.0341 58.812 21.0341C59.7434 21.0035 60.6406 20.6731 61.372 20.0912V20.8326H63.236V9.54968H61.268V12.8217ZM61.268 18.5277C60.628 19.116 60.028 19.4384 59.396 19.4384C58.308 19.4384 57.612 18.7131 57.612 17.0126C57.612 15.175 58.476 14.216 59.98 14.216C60.42 14.216 60.86 14.3046 61.26 14.4658V18.5277H61.268ZM51.86 14.1435H51.788V12.8217H49.948V20.8326H51.924V16.0616C52.54 14.8849 53.292 14.4981 54.548 14.4981H54.748V12.7734C54.57 12.7536 54.3911 12.7428 54.212 12.7412C53.14 12.7412 52.404 13.1602 51.86 14.1515V14.1435ZM118.372 12.6203C115.652 12.6203 114.364 14.3933 114.364 16.8353C114.364 19.2692 115.644 21.0261 118.372 21.0261C121.1 21.0261 122.38 19.2692 122.38 16.8353C122.38 14.3933 121.076 12.6203 118.364 12.6203H118.372ZM118.372 19.4223C117.092 19.4223 116.404 18.5841 116.404 16.8353C116.404 15.0783 117.084 14.2402 118.372 14.2402C119.652 14.2402 120.324 15.0783 120.324 16.8353C120.324 18.5841 119.652 19.4223 118.364 19.4223H118.372ZM133.668 12.6203C132.82 12.6203 131.844 13.0877 130.964 13.6841L130.724 13.8372C130.316 12.9426 129.476 12.6283 128.556 12.6283C127.708 12.6283 126.74 13.0635 125.852 13.6518V12.8217H123.98V20.8326H125.964V15.0864C126.578 14.6401 127.299 14.3674 128.052 14.2966C128.7 14.2966 129.108 14.6512 129.108 15.7795V20.8326H131.076V15.1106C131.812 14.627 132.596 14.3046 133.156 14.3046C133.812 14.3046 134.212 14.6512 134.212 15.7876V20.8326H136.18V15.304C136.18 13.7566 135.268 12.6283 133.66 12.6283L133.668 12.6203ZM44.356 12.6203C41.636 12.6203 40.356 14.3933 40.356 16.8353C40.356 19.2692 41.636 21.0261 44.356 21.0261C47.076 21.0261 48.372 19.2692 48.372 16.8353C48.372 14.3933 47.06 12.6203 44.348 12.6203H44.356ZM44.356 19.4223C43.076 19.4223 42.388 18.5841 42.388 16.8353C42.388 15.0783 43.076 14.2402 44.364 14.2402C45.644 14.2402 46.316 15.0783 46.316 16.8353C46.316 18.5841 45.636 19.4223 44.348 19.4223H44.356ZM76.604 14.1354H76.54V12.8217H74.692V20.8326H76.66V16.0616C77.276 14.8849 78.028 14.4981 79.284 14.4981H79.484V12.7734C79.306 12.7536 79.1271 12.7428 78.948 12.7412C77.884 12.7412 77.148 13.1602 76.596 14.1515H76.604V14.1354ZM69.34 9.54968H65.676V20.8326H67.788V16.9078H69.332C71.724 16.9078 73.46 15.6102 73.46 13.1844C73.46 10.7666 71.724 9.54968 69.332 9.54968H69.34ZM69.356 15.2556H67.788V11.218H69.348C70.628 11.218 71.252 11.9272 71.252 13.1844C71.252 14.4497 70.668 15.2556 69.348 15.2556H69.356ZM98.172 15.0703C98.172 14.4658 98.828 14.2321 99.532 14.2321C100.276 14.2402 101.02 14.3611 101.732 14.5787V12.9346C100.965 12.7162 100.169 12.613 99.372 12.6283C97.468 12.6283 96.132 13.539 96.132 15.0219C96.132 17.8991 100.068 17.1576 100.068 18.5599C100.068 19.245 99.452 19.4303 98.548 19.4303C97.908 19.4303 96.892 19.1886 96.156 18.9226V20.5586C96.8948 20.856 97.6806 21.0171 98.476 21.0341C100.332 21.0341 102.1 20.478 102.1 18.4793C102.124 15.6989 98.18 16.4162 98.18 15.0703H98.172ZM84.172 12.6283C81.628 12.6283 80.308 14.619 80.308 16.7869C80.308 19.7688 81.86 21.0341 84.388 21.0341C85.3792 21.0363 86.3646 20.8812 87.308 20.5748V18.9226C86.484 19.2289 85.732 19.4142 84.932 19.4142C83.46 19.4142 82.476 19.0113 82.428 17.2624H87.516C87.564 16.8675 87.588 16.4726 87.58 16.0857C87.58 14.3933 86.692 12.6283 84.164 12.6283H84.172ZM82.444 15.9487C82.564 14.8366 83.164 14.1273 84.148 14.1273C85.204 14.1273 85.524 14.9736 85.524 15.9487H82.444ZM91.004 15.0703C91.004 14.4658 91.652 14.2321 92.356 14.2321C93.1 14.2402 93.844 14.3611 94.556 14.5787V12.9346C93.7911 12.717 92.9987 12.6138 92.204 12.6283C90.3 12.6283 88.956 13.539 88.956 15.0219C88.956 17.8991 92.9 17.1576 92.9 18.5599C92.9 19.245 92.276 19.4303 91.38 19.4303C90.74 19.4303 89.724 19.1886 88.98 18.9226V20.5586C89.7187 20.8562 90.5046 21.0173 91.3 21.0341C93.156 21.0341 94.932 20.478 94.932 18.4793C94.948 15.6989 91.004 16.4162 91.004 15.0703ZM108.58 16.7627C108.58 14.8849 109.596 14.2482 110.804 14.2482C111.556 14.2724 112.308 14.4255 113.012 14.7076V13.0152C112.294 12.7545 111.535 12.6235 110.772 12.6283C108.148 12.6283 106.524 14.2402 106.524 16.8594C106.524 19.3336 107.692 21.0341 110.652 21.0341C111.588 21.0341 112.316 20.8488 113.116 20.5748V18.9307C112.212 19.2772 111.516 19.4142 110.9 19.4142C109.596 19.4142 108.58 18.8098 108.58 16.7547V16.7627ZM103.428 20.8326H105.404V18.7775H103.428V20.8326ZM1.876 14.3852C1.876 17.9877 3.956 21.0905 6.964 22.5654L2.66 10.686C2.14318 11.8498 1.87602 13.1103 1.876 14.3852ZM10.9 23.4761C11.948 23.4761 12.956 23.2907 13.9 22.9603L13.836 22.8394L11.06 15.1831L8.356 23.1054C9.156 23.3471 10.012 23.4761 10.9 23.4761ZM12.14 10.1219L15.404 19.8978L16.308 16.8675C16.692 15.6102 16.988 14.7076 16.988 13.9259C16.988 12.7976 16.588 12.0239 16.252 11.4275C15.788 10.6699 15.364 10.0332 15.364 9.29179C15.364 8.45363 15.988 7.67994 16.884 7.67994H16.996C15.3332 6.14216 13.1572 5.29061 10.9 5.2944C9.40545 5.29411 7.93427 5.66812 6.61881 6.38278C5.30335 7.09743 4.18488 8.13031 3.364 9.3885L3.94 9.40462C4.884 9.40462 6.34 9.28373 6.34 9.28373C6.836 9.25955 6.892 9.97683 6.404 10.0332C6.404 10.0332 5.916 10.0977 5.364 10.1219L8.66 19.9703L10.636 14.0065L9.228 10.1219C8.91262 10.1044 8.59781 10.0775 8.284 10.0413C7.796 10.0091 7.852 9.25955 8.34 9.28373C8.34 9.28373 9.828 9.40462 10.716 9.40462C11.66 9.40462 13.116 9.28373 13.116 9.28373C13.604 9.25955 13.668 9.97683 13.18 10.0332C13.18 10.0332 12.692 10.0897 12.14 10.1219ZM15.436 22.243C16.8012 21.4434 17.9341 20.2968 18.7217 18.9179C19.5092 17.539 19.9238 15.9761 19.924 14.3852C19.924 12.8056 19.524 11.3227 18.82 10.0252C18.963 11.4527 18.7484 12.8936 18.196 14.216L15.436 22.243ZM10.9 24.8623C8.14175 24.8623 5.49647 23.7584 3.54609 21.7936C1.59571 19.8288 0.5 17.1639 0.5 14.3852C0.5 11.6066 1.59571 8.94168 3.54609 6.97686C5.49647 5.01203 8.14175 3.9082 10.9 3.9082C13.6583 3.9082 16.3035 5.01203 18.2539 6.97686C20.2043 8.94168 21.3 11.6066 21.3 14.3852C21.3 17.1639 20.2043 19.8288 18.2539 21.7936C16.3035 23.7584 13.6583 24.8623 10.9 24.8623Z" fill="#465D72"/>
</g>
<defs>
<clipPath id="clip0_615_2640">
<rect width="136" height="29.0133" fill="white" transform="translate(0.5 1.49414)"/>
</clipPath>
</defs>
</svg>
