<svg id="Group_14" data-name="Group 14" xmlns="http://www.w3.org/2000/svg" width="61.894" height="61.894" viewBox="0 0 61.894 61.894">
  <path id="Path_19" data-name="Path 19" d="M61.894,30.946v.407c0,.256-.009.511-.018.766v.059c0,.129-.011.257-.017.386A30.95,30.95,0,0,1,31.84,61.881h-.012q-.439.014-.881.014A30.947,30.947,0,0,1,30.946,0c.3,0,.59,0,.882.014A30.949,30.949,0,0,1,61.871,29.75c.011.265.017.53.02.8C61.894,30.679,61.894,30.812,61.894,30.946Z" fill="#07ba39"/>
  <g id="Group_13" data-name="Group 13" transform="translate(12.792 0.014)">
    <path id="Path_20" data-name="Path 20" d="M108.663,95.777a4.35,4.35,0,0,0,1.021-3.329,4.737,4.737,0,0,0-4.493-4.959H98.212a1.02,1.02,0,0,0-1.15,1.162v14.388a1.2,1.2,0,0,0,1.362,1.35h7.022a4.942,4.942,0,0,0,4.681-5.109A4.391,4.391,0,0,0,108.663,95.777Zm-8.343-5.063h4.664a1.448,1.448,0,0,1,1.444,1.442v.684a1.447,1.447,0,0,1-1.444,1.441H100.32Zm6.45,9a1.445,1.445,0,0,1-1.441,1.442H100.32V97.591h5.014a1.447,1.447,0,0,1,1.441,1.444Zm1.9-3.935a4.35,4.35,0,0,0,1.021-3.329,4.737,4.737,0,0,0-4.493-4.959H98.212a1.02,1.02,0,0,0-1.15,1.162v14.389a1.2,1.2,0,0,0,1.362,1.35h7.022a4.942,4.942,0,0,0,4.681-5.109,4.4,4.4,0,0,0-1.463-3.509Zm-8.346-5.07h4.664a1.448,1.448,0,0,1,1.444,1.442v.684a1.447,1.447,0,0,1-1.444,1.441H100.32Zm6.45,9a1.445,1.445,0,0,1-1.441,1.442H100.32V97.591h5.014a1.447,1.447,0,0,1,1.441,1.444Zm1.9-3.935a4.35,4.35,0,0,0,1.021-3.329,4.737,4.737,0,0,0-4.493-4.959H98.212a1.02,1.02,0,0,0-1.15,1.162v14.389a1.2,1.2,0,0,0,1.362,1.35h7.022a4.942,4.942,0,0,0,4.681-5.109,4.4,4.4,0,0,0-1.463-3.509Zm-8.346-5.07h4.664a1.448,1.448,0,0,1,1.444,1.442v.684a1.447,1.447,0,0,1-1.444,1.441H100.32Zm6.45,9a1.445,1.445,0,0,1-1.441,1.442H100.32V97.591h5.014a1.447,1.447,0,0,1,1.441,1.444Zm1.9-3.935a4.35,4.35,0,0,0,1.021-3.329,4.737,4.737,0,0,0-4.493-4.959H98.212a1.02,1.02,0,0,0-1.15,1.162v14.389a1.2,1.2,0,0,0,1.362,1.35h7.022a4.942,4.942,0,0,0,4.681-5.109,4.4,4.4,0,0,0-1.463-3.509Zm-8.346-5.07h4.664a1.448,1.448,0,0,1,1.444,1.442v.684a1.447,1.447,0,0,1-1.444,1.441H100.32Zm6.45,9a1.445,1.445,0,0,1-1.441,1.442H100.32V97.591h5.014a1.447,1.447,0,0,1,1.441,1.444Zm-3.2-22.2H103a17.987,17.987,0,0,0-15.348,27.27l-3.119,9.6,9.817-3.154a17.9,17.9,0,0,0,8.65,2.243h.053c.173,0,.345,0,.516-.008a17.981,17.981,0,0,0,0-35.949Zm0,33.023c-.189.009-.378.012-.569.012a14.941,14.941,0,0,1-8.287-2.494L89.053,109.9l1.849-5.462A15.012,15.012,0,0,1,103,80.527c.191,0,.38,0,.569.012a15.01,15.01,0,0,1,0,30Zm5.1-14.767a4.35,4.35,0,0,0,1.021-3.329,4.737,4.737,0,0,0-4.493-4.959H98.212a1.02,1.02,0,0,0-1.15,1.162v14.388a1.2,1.2,0,0,0,1.362,1.35h7.022a4.942,4.942,0,0,0,4.681-5.109A4.391,4.391,0,0,0,108.663,95.777Zm-8.343-5.064h4.664a1.448,1.448,0,0,1,1.444,1.442v.684a1.447,1.447,0,0,1-1.444,1.441H100.32Zm6.45,9a1.445,1.445,0,0,1-1.441,1.442H100.32V97.591h5.014a1.447,1.447,0,0,1,1.441,1.444Zm1.9-3.935a4.35,4.35,0,0,0,1.021-3.329,4.737,4.737,0,0,0-4.493-4.959H98.212a1.02,1.02,0,0,0-1.15,1.162v14.389a1.2,1.2,0,0,0,1.362,1.35h7.022a4.942,4.942,0,0,0,4.681-5.109,4.4,4.4,0,0,0-1.463-3.509Zm-8.346-5.07h4.664a1.448,1.448,0,0,1,1.444,1.442v.684a1.447,1.447,0,0,1-1.444,1.441H100.32Zm6.45,9a1.445,1.445,0,0,1-1.441,1.442H100.32V97.591h5.014a1.447,1.447,0,0,1,1.441,1.444Zm1.9-3.935a4.35,4.35,0,0,0,1.021-3.329,4.737,4.737,0,0,0-4.493-4.959H98.212a1.02,1.02,0,0,0-1.15,1.162v14.389a1.2,1.2,0,0,0,1.362,1.35h7.022a4.942,4.942,0,0,0,4.681-5.109,4.4,4.4,0,0,0-1.463-3.509Zm-8.346-5.07h4.664a1.448,1.448,0,0,1,1.444,1.442v.684a1.447,1.447,0,0,1-1.444,1.441H100.32Zm6.45,9a1.445,1.445,0,0,1-1.441,1.442H100.32V97.591h5.014a1.447,1.447,0,0,1,1.441,1.444Z" transform="translate(-84.53 -65.802)" fill="#fff" fill-rule="evenodd"/>
    <path id="Path_21" data-name="Path 21" d="M240.386,31.022v.407c0,.256-.009.511-.018.766v.059c0,.129-.011.257-.017.386a30.95,30.95,0,0,1-30.019,29.317h-.012V.09a30.949,30.949,0,0,1,30.044,29.736c.011.265.017.53.02.8C240.386,30.756,240.386,30.889,240.386,31.022Z" transform="translate(-191.284 -0.09)" fill-rule="evenodd" opacity="0.17"/>
  </g>
</svg>
