<?xml version="1.0" encoding="UTF-8"?>
<svg version="1.1" xmlns="http://www.w3.org/2000/svg" width="2070" height="1000">
<path d="M0 0 C683.1 0 1366.2 0 2070 0 C2070 330 2070 660 2070 1000 C1386.9 1000 703.8 1000 0 1000 C0 670 0 340 0 0 Z " fill="#B6299F" transform="translate(0,0)"/>
<path d="M0 0 C2.5419051 3.81285765 4.39078485 7.86347203 6.3671875 11.9921875 C11.22361973 20.93824687 18.80774129 25.32309652 28 29 C28.99 29.66 29.98 30.32 31 31 C20.77 31 10.54 31 0 31 C0 20.77 0 10.54 0 0 Z " fill="#020000" transform="translate(0,969)"/>
<path d="M0 0 C0.33 0 0.66 0 1 0 C1 10.23 1 20.46 1 31 C-9.23 31 -19.46 31 -30 31 C-27 29 -27 29 -23.875 27.75 C-12.86367622 23.07076939 -6.72647859 16.42529832 -2.125 5.5 C-1.40522183 3.67112969 -0.69278926 1.83926351 0 0 Z " fill="#000000" transform="translate(2069,969)"/>
<path d="M0 0 C10.23 0 20.46 0 31 0 C31 10.23 31 20.46 31 31 C29.09510101 28.14265151 27.71363108 25.35037981 26.25 22.25 C21.3340656 12.4417655 15.32273364 6.0896116 4.80078125 2.18359375 C3.21784955 1.72444723 1.61055987 1.35012171 0 1 C0 0.67 0 0.34 0 0 Z " fill="#000000" transform="translate(2039,0)"/>
<path d="M0 0 C10.23 0 20.46 0 31 0 C28 2 28 2 24.875 3.25 C13.86367622 7.92923061 7.72647859 14.57470168 3.125 25.5 C2.40522183 27.32887031 1.69278926 29.16073649 1 31 C0.67 31 0.34 31 0 31 C0 20.77 0 10.54 0 0 Z " fill="#000000" transform="translate(0,0)"/>
</svg>
