<svg id="Group_9" data-name="Group 9" xmlns="http://www.w3.org/2000/svg" xmlns:xlink="http://www.w3.org/1999/xlink" width="243" height="62.73" viewBox="0 0 243 62.73">
  <defs>
    <clipPath id="clip-path">
      <rect id="Rectangle_3" data-name="Rectangle 3" width="243" height="62.73"/>
    </clipPath>
    <clipPath id="clip-path-2">
      <path id="Path_17" data-name="Path 17" d="M497.467,109.111a6.568,6.568,0,0,0,0,9.361,6.927,6.927,0,0,0,5,1.88,6.688,6.688,0,0,0,4.881-1.88,6.664,6.664,0,0,0,0-9.361,6.691,6.691,0,0,0-4.881-1.88,6.931,6.931,0,0,0-5,1.88" transform="translate(-495.507 -107.231)"/>
    </clipPath>
    <linearGradient id="linear-gradient" x1="0.5" x2="0.5" y2="1" gradientUnits="objectBoundingBox">
      <stop offset="0" stop-color="#02ebad"/>
      <stop offset="1" stop-color="#5a57fb"/>
    </linearGradient>
  </defs>
  <g id="Group_6" data-name="Group 6">
    <g id="Group_5" data-name="Group 5" clip-path="url(#clip-path)">
      <path id="Path_10" data-name="Path 10" d="M39.446,46.8a13.791,13.791,0,0,1,3.04,8.8,14.188,14.188,0,0,1-2.2,7.881A14.652,14.652,0,0,1,33.925,68.8a23.309,23.309,0,0,1-9.842,1.92H0V14.874H23.044a23.907,23.907,0,0,1,9.8,1.84,13.969,13.969,0,0,1,6.241,5.121,13.42,13.42,0,0,1,2.12,7.441,12.729,12.729,0,0,1-2.6,8.161,13.906,13.906,0,0,1-6.921,4.641A12.562,12.562,0,0,1,39.446,46.8M11.2,37.918H21.443a9.374,9.374,0,0,0,6.161-1.8,6.337,6.337,0,0,0,2.16-5.161,6.457,6.457,0,0,0-2.16-5.2,9.237,9.237,0,0,0-6.161-1.841H11.2ZM28.845,59.681a6.719,6.719,0,0,0,2.28-5.441,7.007,7.007,0,0,0-2.4-5.641,9.676,9.676,0,0,0-6.481-2.04H11.2V61.6H22.483a9.586,9.586,0,0,0,6.361-1.92" transform="translate(0 -7.993)"/>
      <path id="Path_11" data-name="Path 11" d="M117.352,40.4a15.694,15.694,0,0,1,7.961-2V50.158h-2.96q-5.281,0-7.961,2.48t-2.68,8.642V83.363h-11.2v-39.7l11.2-4.626v6.881a15.749,15.749,0,0,1,5.64-5.521" transform="translate(-54.01 -20.633)"/>
      <path id="Path_12" data-name="Path 12" d="M163.369,11.242a6.217,6.217,0,0,1-1.961-4.681,6.22,6.22,0,0,1,1.961-4.68,7.378,7.378,0,0,1,9.842,0,6.223,6.223,0,0,1,1.96,4.68,6.22,6.22,0,0,1-1.96,4.681,7.378,7.378,0,0,1-9.842,0M173.81,62.73h-11.2V17.763h11.2Z" transform="translate(-86.735)"/>
      <path id="Path_13" data-name="Path 13" d="M235.072,43.4q4.879,5,4.881,13.963v26h-11.2V58.879q0-5.282-2.641-8.122a9.354,9.354,0,0,0-7.2-2.841,9.584,9.584,0,0,0-7.321,2.841q-2.681,2.841-2.68,8.122V83.362h-11.2V38.4h11.2v6.161a15.476,15.476,0,0,1,5.721-4.521,17.712,17.712,0,0,1,7.641-1.64q7.921,0,12.8,5" transform="translate(-106.241 -20.632)"/>
      <path id="Path_14" data-name="Path 14" d="M308.229,35.71V57.153a4.237,4.237,0,0,0,1.08,3.24,5.3,5.3,0,0,0,3.641,1h5.2v9.441h-7.041q-14.163,0-14.163-13.762V35.71H287.04l4.626-9.2h5.28v-6.8l11.282-4.626V26.508h9.921v9.2Z" transform="translate(-154.246 -8.106)"/>
      <path id="Path_15" data-name="Path 15" d="M365.282,79.592a20.439,20.439,0,0,1-8.041-8.041,24.08,24.08,0,0,1-2.921-12,23.583,23.583,0,0,1,3-12,20.841,20.841,0,0,1,8.2-8.041,25.109,25.109,0,0,1,23.2,0,20.851,20.851,0,0,1,8.2,8.041,23.588,23.588,0,0,1,3,12,23.1,23.1,0,0,1-3.08,12,21.33,21.33,0,0,1-8.321,8.041A24.192,24.192,0,0,1,376.8,82.433a23.339,23.339,0,0,1-11.522-2.841m17.243-8.4a10.763,10.763,0,0,0,4.281-4.441,14.965,14.965,0,0,0,1.6-7.2q0-6.32-3.321-9.722a10.919,10.919,0,0,0-8.122-3.4,10.659,10.659,0,0,0-8.041,3.4q-3.241,3.4-3.241,9.722t3.16,9.721a10.4,10.4,0,0,0,7.961,3.4,11.645,11.645,0,0,0,5.721-1.48" transform="translate(-190.4 -19.703)"/>
      <path id="Path_16" data-name="Path 16" d="M475.181,40.4a15.694,15.694,0,0,1,7.961-2V50.158h-2.96q-5.282,0-7.961,2.48t-2.68,8.642V83.363h-11.2v-39.7l11.2-4.626v6.881a15.754,15.754,0,0,1,5.641-5.521" transform="translate(-246.296 -20.633)"/>
    </g>
  </g>
  <g id="Group_8" data-name="Group 8" transform="translate(229.238 49.609)">
    <g id="Group_7" data-name="Group 7" clip-path="url(#clip-path-2)">
      <path id="Path_18" data-name="Path 18" d="M0,0H18.886V18.76H0Z" transform="matrix(0.799, -0.601, 0.601, 0.799, -6.304, 4.744)" fill="url(#linear-gradient)"/>
    </g>
  </g>
</svg>
