<?xml version="1.0" encoding="UTF-8"?>
<svg version="1.1" xmlns="http://www.w3.org/2000/svg" width="181" height="164">
<path d="M0 0 C5.40882294 3.74456973 7.60156911 8.7480405 10.375 14.60546875 C12.10399954 18.21724904 13.96887735 21.72997775 15.875 25.25 C21.57654376 35.8652131 26.92175893 46.63609898 32 57.5625 C34.82083783 63.62633718 37.82836207 69.54961097 41.01098633 75.43066406 C44.409202 81.71872037 47.5890909 88.1068792 50.76318359 94.51025391 C53.33088341 99.6791056 55.91758582 104.83848904 58.5 110 C59.62897071 112.25778027 60.75787826 114.51559212 61.88671875 116.7734375 C62.42216309 117.84432617 62.95760742 118.91521484 63.50927734 120.01855469 C64.78352865 122.56705729 66.05777995 125.1155599 67.33203125 127.6640625 C67.83766602 128.67460693 67.83766602 128.67460693 68.35351562 129.70556641 C68.98268922 130.96487466 69.61034587 132.22494219 70.23632812 133.48583984 C71.87496547 136.78161529 73.54817508 140.05495567 75.26171875 143.3125 C75.63578857 144.03356934 76.0098584 144.75463867 76.39526367 145.49755859 C77.1081006 146.87030136 77.83027744 148.23825326 78.5637207 149.60009766 C80.61432089 153.57711331 81.38483324 156.53318563 81 161 C74.47572796 163.91596978 69.10915041 164.43708087 62.0078125 164.30859375 C60.96150665 164.2985582 59.91520081 164.28852264 58.83718872 164.27818298 C47.47020681 164.09681814 36.18744934 163.12596184 24.875 162.0625 C20.8521221 161.69280031 16.82865848 161.33025435 12.8046875 160.97265625 C11.82675232 160.88456696 10.84881714 160.79647766 9.84124756 160.70571899 C2.03488707 160.02772378 -5.76856592 159.63093854 -13.60159302 159.42628479 C-24.16447507 159.07479637 -33.12004519 157.28053568 -40.60546875 149.28515625 C-46.23873582 141.47126966 -46.78401908 130.45584099 -45.82421875 121.14453125 C-44.14924049 114.75421135 -40.50384252 109.56165479 -37 104 C-42.94 100.04 -48.88 96.08 -55 92 C-53.87765957 84.14361702 -53.87765957 84.14361702 -50.1875 79.5625 C-49.37410156 78.52738281 -48.56070313 77.49226563 -47.72265625 76.42578125 C-47.28195801 75.8735791 -46.84125977 75.32137695 -46.38720703 74.75244141 C-43.3848078 70.95954777 -40.47407359 67.09377761 -37.61767578 63.18994141 C-35.09205265 59.73941935 -32.52743279 56.4257089 -29.68359375 53.23046875 C-24.76644283 47.42250238 -21.57798448 42.95550711 -21.984375 35.08984375 C-22.52976116 30.11899388 -23.47779233 25.26568949 -24.53637695 20.38183594 C-25.3732583 16.08240757 -25.44205647 13.0104148 -23.6875 9 C-18.44980905 2.00407358 -8.52574579 -2.16526877 0 0 Z " fill="#702DC1" transform="translate(91,0)"/>
<path d="M0 0 C4.96052025 -0.59526243 8.0021042 -0.70439704 12.1875 2.25 C15.33398151 5.94819334 17.30869188 10.24146905 19.375 14.60546875 C21.10399954 18.21724904 22.96887735 21.72997775 24.875 25.25 C30.57654376 35.8652131 35.92175893 46.63609898 41 57.5625 C43.82083783 63.62633718 46.82836207 69.54961097 50.01098633 75.43066406 C53.40764521 81.71583969 56.58616084 88.10101995 59.75878906 94.50146484 C61.77837984 98.56686454 63.81067902 102.62589716 65.84228516 106.68530273 C66.98440704 108.96906022 68.12472227 111.25372215 69.26318359 113.53930664 C71.60384179 118.23543732 73.94496944 122.92782025 76.390625 127.5703125 C76.72376709 128.20952637 77.05690918 128.84874023 77.40014648 129.50732422 C78.23301392 131.09817458 79.07873264 132.6822799 79.92578125 134.265625 C81.14666271 137.37332325 81.2010984 139.68889151 81 143 C81 143.66 81 144.32 81 145 C81.66 145.66 82.32 146.32 83 147 C83.125 149.625 83.125 149.625 83 152 C80.65682561 150.68196441 78.32621166 149.34744713 76 148 C75.31679687 147.61457031 74.63359375 147.22914063 73.9296875 146.83203125 C69.22323119 144.06721186 66.36652973 141.27640263 63 137 C60.74806067 135.0523768 58.40284616 133.29837525 56.01171875 131.52734375 C55.30660156 131.00269531 54.60148437 130.47804687 53.875 129.9375 C53.21242188 129.45152344 52.54984375 128.96554688 51.8671875 128.46484375 C50 127 50 127 48.66796875 125.63671875 C46.12280088 123.13923552 43.25936668 121.04639101 40.4375 118.875 C35.20847277 114.81448929 30.22904064 110.58596166 25.34765625 106.109375 C17.33668493 98.91149728 8.55916751 92.52955461 0 86 C-0.66902344 85.44054687 -1.33804688 84.88109375 -2.02734375 84.3046875 C-4.5047024 82.66619683 -6.80296572 82.11145661 -9.6875 81.4375 C-12.63671875 80.74609375 -12.63671875 80.74609375 -15 80 C-15.495 79.01 -15.495 79.01 -16 78 C-17.64767247 78.28109113 -19.29313145 78.57518526 -20.9375 78.875 C-21.85402344 79.03742188 -22.77054688 79.19984375 -23.71484375 79.3671875 C-24.46894531 79.57601562 -25.22304688 79.78484375 -26 80 C-26.495 80.99 -26.495 80.99 -27 82 C-28.98 81.67 -30.96 81.34 -33 81 C-31.69386058 77.08158173 -30.16870152 74.67359191 -27 72 C-26.34 72 -25.68 72 -25 72 C-24.7215625 71.01 -24.7215625 71.01 -24.4375 70 C-21.95546241 64.82009547 -18.02724889 60.57111789 -13.5 57.0625 C-10.25712035 54.38712429 -8.01554402 51.21649067 -5.55078125 47.828125 C-5.03902344 47.22484375 -4.52726562 46.6215625 -4 46 C-3.34 46 -2.68 46 -2 46 C-1.08966594 43.26899783 -0.88184122 41.72937756 -0.90234375 38.92749023 C-0.90729858 37.70623695 -0.90729858 37.70623695 -0.91235352 36.46031189 C-0.92065186 35.5852449 -0.9289502 34.71017792 -0.9375 33.80859375 C-0.94128662 32.9075441 -0.94507324 32.00649445 -0.94897461 31.07814026 C-0.96120019 28.19787855 -0.97983344 25.31771642 -1 22.4375 C-1.02650879 18.64453402 -1.04654304 14.85161713 -1.0625 11.05859375 C-1.07079834 10.18150253 -1.07909668 9.30441132 -1.08764648 8.40074158 C-1.11279749 2.22559498 -1.11279749 2.22559498 0 0 Z " fill="#6C2CC8" transform="translate(82,0)"/>
<path d="M0 0 C3.31096112 3.0562718 5.85033927 6.43485532 8.4375 10.09765625 C9.9583754 12.10637365 9.9583754 12.10637365 12.1875 13.62109375 C12.785625 14.07613281 13.38375 14.53117188 14 15 C14 15.66 14 16.32 14 17 C32.14137244 19.55432981 50.30603086 21.65688893 68.62670898 22.28857422 C96.55933758 23.27966879 96.55933758 23.27966879 106 28 C105.505 29.485 105.505 29.485 105 31 C99.62643429 33.64274626 93.98064422 33.30118539 88.1328125 33.24609375 C87.07748322 33.24056992 86.02215393 33.23504608 84.93484497 33.22935486 C73.52930962 33.09623585 62.22456101 32.12945063 50.875 31.0625 C46.85212233 30.69280033 42.82867964 30.33001609 38.8046875 29.97265625 C37.82892761 29.88529205 36.85316772 29.79792786 35.84783936 29.70791626 C27.95106313 29.0254596 20.05576281 28.61279639 12.13473511 28.33839417 C7.67128032 28.17463526 3.39590852 27.87260451 -1 27 C2.14573677 24.90284215 4.01456251 24.47995441 7.6875 23.875 C8.68136719 23.70742187 9.67523438 23.53984375 10.69921875 23.3671875 C11.45847656 23.24601562 12.21773437 23.12484375 13 23 C12.04134491 20.66924071 12.04134491 20.66924071 9 19 C9.99 18.67 10.98 18.34 12 18 C9.76937006 16.84337707 7.90933227 15.98009733 5.4375 15.4375 C1.98923053 13.40390519 1.56671233 11.00835193 0.4921875 7.265625 C-0.0468419 4.78437857 -0.24498492 2.53151089 0 0 Z " fill="#9865D9" transform="translate(65,131)"/>
<path d="M0 0 C2.1385485 2.1385485 2.42655063 3.13275314 3 6 C4.0725 5.87625 5.145 5.7525 6.25 5.625 C7.4875 5.74875 8.725 5.8725 10 6 C11.36176581 7.98075027 12.69593116 9.98079663 14 12 C17.08391002 12.33361919 17.08391002 12.33361919 20 12 C22 14 22 14 22.125 16.625 C22.08375 17.40875 22.0425 18.1925 22 19 C22.66 19 23.32 19 24 19 C24 20.32 24 21.64 24 23 C23.34 23 22.68 23 22 23 C21.566875 24.670625 21.566875 24.670625 21.125 26.375 C20 30 20 30 18 32 C16.68 32 15.36 32 14 32 C13.68320714 27.3537047 14.2063541 25.60845929 17 22 C17.25124826 19.33238236 17.25124826 19.33238236 17 17 C15.35 17.33 13.7 17.66 12 18 C11.896875 18.7425 11.79375 19.485 11.6875 20.25 C10.95746496 23.17014018 9.93210602 24.73187554 8 27 C6.68 26.67 5.36 26.34 4 26 C4.42816419 22.4890536 5.13236007 19.46781484 6.5625 16.25 C8.13483534 13.28744109 8.13483534 13.28744109 8 11 C6.02 11.66 4.04 12.32 2 13 C1.8453125 14.1446875 1.8453125 14.1446875 1.6875 15.3125 C0.94460116 18.21655911 0.43006017 19.28995766 -2 21 C-3.32 21 -4.64 21 -6 21 C-5.25 15.25 -5.25 15.25 -3 13 C-2.54188325 11.02764667 -2.54188325 11.02764667 -2.375 8.875 C-2.189375 6.956875 -2.189375 6.956875 -2 5 C-3.32 5.33 -4.64 5.66 -6 6 C-6.33 4.35 -6.66 2.7 -7 1 C-4.48718205 -0.25640898 -2.78302919 -0.20872719 0 0 Z " fill="#D2831B" transform="translate(7,52)"/>
<path d="M0 0 C0.99 0 1.98 0 3 0 C3.33 0.99 3.66 1.98 4 3 C5.60854854 4.44462053 5.60854854 4.44462053 7.5 5.8125 C10.31249809 8.1073604 10.92355365 8.72479313 11.9375 12.375 C11.958125 13.24125 11.97875 14.1075 12 15 C9.03 15 6.06 15 3 15 C3 15.66 3 16.32 3 17 C3.99 17.33 4.98 17.66 6 18 C6.33 19.98 6.66 21.96 7 24 C4.03 24 1.06 24 -2 24 C-1.319375 24.7425 -0.63875 25.485 0.0625 26.25 C2 29 2 29 1.75 31.3125 C1.5025 31.869375 1.255 32.42625 1 33 C-4.63281599 33.2396943 -9.54538831 32.38529821 -15 31 C-15 29.68 -15 28.36 -15 27 C-12.36 27 -9.72 27 -7 27 C-7.33 26.67 -7.66 26.34 -8 26 C-10.64678055 22.92973456 -11 22.29177584 -11 18 C-7.67465243 16.89155081 -5.37817425 17.15545644 -2 18 C-2.66 17.2575 -3.32 16.515 -4 15.75 C-6 13 -6 13 -6 9 C-2.67465243 7.89155081 -0.37817425 8.15545644 3 9 C2.319375 8.2575 1.63875 7.515 0.9375 6.75 C-1 4 -1 4 -0.75 1.6875 C-0.5025 1.130625 -0.255 0.57375 0 0 Z " fill="#D28715" transform="translate(169,67)"/>
<path d="M0 0 C3.31096112 3.0562718 5.85033927 6.43485532 8.4375 10.09765625 C9.9583754 12.10637365 9.9583754 12.10637365 12.1875 13.62109375 C12.785625 14.07613281 13.38375 14.53117188 14 15 C14 15.66 14 16.32 14 17 C32.14137244 19.55432981 50.30603086 21.65688893 68.62670898 22.28857422 C96.55933758 23.27966879 96.55933758 23.27966879 106 28 C105.67 28.66 105.34 29.32 105 30 C103.80673096 29.80881592 102.61346191 29.61763184 101.3840332 29.4206543 C87.56089525 27.28465591 73.74555041 26.03552822 59.79614258 25.06469727 C56.17385173 24.81154616 52.55279606 24.54424841 48.93164062 24.27539062 C36.93539931 23.40610669 25.03063363 22.69868579 13 23 C12.67 22.34 12.34 21.68 12 21 C11.01 20.34 10.02 19.68 9 19 C9.99 18.67 10.98 18.34 12 18 C9.76937006 16.84337707 7.90933227 15.98009733 5.4375 15.4375 C1.98923053 13.40390519 1.56671233 11.00835193 0.4921875 7.265625 C-0.0468419 4.78437857 -0.24498492 2.53151089 0 0 Z " fill="#9257DC" transform="translate(65,131)"/>
<path d="M0 0 C0.495 1.485 0.495 1.485 1 3 C5.29 3.66 9.58 4.32 14 5 C14 5.33 14 5.66 14 6 C5.29581805 6.15959046 -3.34324109 5.72695937 -12.02661133 5.20043945 C-14.32542582 5.06172001 -16.62457023 4.92997008 -18.92382812 4.79882812 C-20.40367036 4.71135139 -21.88348903 4.62347503 -23.36328125 4.53515625 C-24.04151443 4.49656998 -24.71974762 4.4579837 -25.41853333 4.41822815 C-29.33532894 4.17543778 -33.14143476 3.71360865 -37 3 C-26.96385373 -3.69076418 -11.06269321 -4.15024501 0 0 Z " fill="#C19AE2" transform="translate(101,155)"/>
<path d="M0 0 C2 2 2 2 2.25 4 C2.4975 4.66 2.745 5.32 3 6 C5.96260526 7.23757877 5.96260526 7.23757877 9 8 C9.33 8.33 9.66 8.66 10 9 C9.93579251 10.62853535 9.7987936 12.25449212 9.625 13.875 C9.53476562 14.75929688 9.44453125 15.64359375 9.3515625 16.5546875 C9 19 9 19 8 22 C7.34 22 6.68 22 6 22 C6 23.65 6 25.3 6 27 C5.34 26.67 4.68 26.34 4 26 C4.42816419 22.4890536 5.13236007 19.46781484 6.5625 16.25 C8.13483534 13.28744109 8.13483534 13.28744109 8 11 C6.02 11.66 4.04 12.32 2 13 C1.8453125 14.1446875 1.8453125 14.1446875 1.6875 15.3125 C0.94460116 18.21655911 0.43006017 19.28995766 -2 21 C-3.32 21 -4.64 21 -6 21 C-5.25 15.25 -5.25 15.25 -3 13 C-2.54188325 11.02764667 -2.54188325 11.02764667 -2.375 8.875 C-2.189375 6.956875 -2.189375 6.956875 -2 5 C-3.32 5.33 -4.64 5.66 -6 6 C-6.33 4.35 -6.66 2.7 -7 1 C-4.48718205 -0.25640898 -2.78302919 -0.20872719 0 0 Z " fill="#CB891D" transform="translate(7,52)"/>
<path d="M0 0 C1.32 0.33 2.64 0.66 4 1 C3.34 1.99 2.68 2.98 2 4 C1.81625297 6.62785957 1.74383288 9.1468727 1.76953125 11.7734375 C1.76998947 12.53419586 1.77044769 13.29495422 1.7709198 14.07876587 C1.77393927 15.68761759 1.78181649 17.29646646 1.79418945 18.90527344 C1.81238012 21.35883029 1.81469947 23.81200791 1.81445312 26.265625 C1.81937132 27.83073241 1.82520095 29.39583727 1.83203125 30.9609375 C1.83314407 31.69130219 1.8342569 32.42166687 1.83540344 33.17416382 C1.86299829 36.16150717 1.97085629 38.87878166 2.67114258 41.79150391 C3 44 3 44 1.99951172 45.7734375 C1.48146973 46.30195312 0.96342773 46.83046875 0.4296875 47.375 C-0.1375 47.96796875 -0.7046875 48.5609375 -1.2890625 49.171875 C-1.89492187 49.77515625 -2.50078125 50.3784375 -3.125 51 C-3.70765625 51.60328125 -4.2903125 52.2065625 -4.890625 52.828125 C-7.38887095 55.40479123 -9.93273791 57.93326754 -12.48046875 60.4609375 C-15.7822181 63.7882818 -18.98704999 67.20048505 -22.1875 70.625 C-22.81591797 71.29273437 -23.44433594 71.96046875 -24.09179688 72.6484375 C-24.69443359 73.29296875 -25.29707031 73.9375 -25.91796875 74.6015625 C-26.46219482 75.18244629 -27.0064209 75.76333008 -27.56713867 76.36181641 C-29.19441743 78.15050445 -29.19441743 78.15050445 -31 81 C-31.66 81 -32.32 81 -33 81 C-31.69386058 77.08158173 -30.16870152 74.67359191 -27 72 C-26.34 72 -25.68 72 -25 72 C-24.7215625 71.01 -24.7215625 71.01 -24.4375 70 C-21.95546241 64.82009547 -18.02724889 60.57111789 -13.5 57.0625 C-10.25712035 54.38712429 -8.01554402 51.21649067 -5.55078125 47.828125 C-5.03902344 47.22484375 -4.52726562 46.6215625 -4 46 C-3.34 46 -2.68 46 -2 46 C-1.08966594 43.26899783 -0.88184122 41.72937756 -0.90234375 38.92749023 C-0.90729858 37.70623695 -0.90729858 37.70623695 -0.91235352 36.46031189 C-0.92065186 35.5852449 -0.9289502 34.71017792 -0.9375 33.80859375 C-0.94128662 32.9075441 -0.94507324 32.00649445 -0.94897461 31.07814026 C-0.96120019 28.19787855 -0.97983344 25.31771642 -1 22.4375 C-1.02650879 18.64453402 -1.04654304 14.85161713 -1.0625 11.05859375 C-1.07079834 10.18150253 -1.07909668 9.30441132 -1.08764648 8.40074158 C-1.11279749 2.22559498 -1.11279749 2.22559498 0 0 Z " fill="#7336CD" transform="translate(82,0)"/>
<path d="M0 0 C3.06034838 1.34179421 4.93011513 2.7479518 7.0625 5.3125 C7.54847656 5.88613281 8.03445312 6.45976563 8.53515625 7.05078125 C10.20732246 9.27587709 11.57046404 11.61162894 13 14 C14.50230114 16.18316056 16.01743485 18.34770795 17.5625 20.5 C17.99578613 21.10513428 18.42907227 21.71026855 18.87548828 22.33374023 C24.11717805 29.61071675 29.49042623 36.83916512 35.2734375 43.6953125 C37.28523744 46.38074681 37.37452169 47.72293518 37 51 C34.0045396 49.5022698 33.47848057 46.95696113 32 44 C30.06168419 41.3738947 28.08994776 39.08744921 25.75 36.8125 C24 35 24 35 24 33 C23.34 33 22.68 33 22 33 C19 28.61538462 19 28.61538462 19 26 C18.34 26 17.68 26 17 26 C16.67 24.68 16.34 23.36 16 22 C15.34 22 14.68 22 14 22 C13.34 20.35 12.68 18.7 12 17 C11.34 17 10.68 17 10 17 C9.71125 16.360625 9.4225 15.72125 9.125 15.0625 C8.17176549 12.84793921 8.17176549 12.84793921 6 12 C5.375 9.4375 5.375 9.4375 5 7 C4.34 7 3.68 7 3 7 C2.67 5.68 2.34 4.36 2 3 C1.34 3 0.68 3 0 3 C0 2.01 0 1.02 0 0 Z " fill="#854DD4" transform="translate(128,101)"/>
<path d="M0 0 C1.89646998 0.11493757 3.79218332 0.24239642 5.6875 0.375 C6.74324219 0.44460937 7.79898438 0.51421875 8.88671875 0.5859375 C11.90677269 0.98760089 14.24078054 1.74069019 17 3 C17 3.33 17 3.66 17 4 C14.36 4 11.72 4 9 4 C9.680625 4.7425 10.36125 5.485 11.0625 6.25 C13 9 13 9 12.75 11.3125 C12.5025 11.869375 12.255 12.42625 12 13 C6.36718401 13.2396943 1.45461169 12.38529821 -4 11 C-4 9.68 -4 8.36 -4 7 C-1.36 7 1.28 7 4 7 C3.67 6.67 3.34 6.34 3 6 C0 2.28 0 2.28 0 0 Z " fill="#CF7D15" transform="translate(158,87)"/>
<path d="M0 0 C3.5625 0.375 3.5625 0.375 5.5625 2 C6.91920357 5.22217097 6.55159099 7.05448024 5.5625 10.375 C4.375 12.25 4.375 12.25 2.5625 13.375 C-0.4375 13.8125 -0.4375 13.8125 -3.4375 13.375 C-5.375 11.8125 -5.375 11.8125 -6.4375 9.375 C-5.98636507 0.65305801 -5.98636507 0.65305801 0 0 Z " fill="#93C9B4" transform="translate(14.4375,89.625)"/>
<path d="M0 0 C0.66 0.33 1.32 0.66 2 1 C2.37890625 3.46875 2.37890625 3.46875 2.5625 6.5 C2.49321033 10.06330354 2.49321033 10.06330354 4 13 C4.45167168 15.3587299 4.77060875 17.61519664 5 20 C5.11794922 21.17369141 5.11794922 21.17369141 5.23828125 22.37109375 C5.60854099 29.15213644 3.77179649 33.42312948 0 39 C-0.66 39 -1.32 39 -2 39 C-2.25007813 39.721875 -2.50015625 40.44375 -2.7578125 41.1875 C-4.11138659 44.25219604 -5.74160037 46.42381931 -7.875 49 C-8.55304687 49.825 -9.23109375 50.65 -9.9296875 51.5 C-10.61289062 52.325 -11.29609375 53.15 -12 54 C-13.33615055 55.66440899 -14.67030567 57.33042864 -16 59 C-16.66 58.67 -17.32 58.34 -18 58 C-17.40574219 57.2471875 -16.81148437 56.494375 -16.19921875 55.71875 C-14.42274295 53.45843877 -12.68985274 51.16986252 -10.96875 48.8671875 C-9.0105595 46.2602148 -6.95860677 43.80867194 -4.78125 41.3828125 C0.1595183 35.56211835 3.4338979 30.97004466 3.0234375 23.078125 C2.47268683 18.11630191 1.5287967 13.26668608 0.45849609 8.39355469 C-0.08376324 5.56271842 -0.16937885 2.87460111 0 0 Z " fill="#6528A0" transform="translate(66,12)"/>
<path d="M0 0 C7.01694482 1.25397873 14.01556007 2.57584088 21 4 C21 4.99 21 5.98 21 7 C20.34 7 19.68 7 19 7 C18.67 8.32 18.34 9.64 18 11 C12.93286776 10.50546007 9.808718 8.91879142 5.625 6.0625 C4.56539062 5.35222656 3.50578125 4.64195313 2.4140625 3.91015625 C1.61742187 3.27980469 0.82078125 2.64945312 0 2 C0 1.34 0 0.68 0 0 Z " fill="#9273CB" transform="translate(39,92)"/>
<path d="M0 0 C2 2 2 2 2.1875 5.5 C2 9 2 9 1 11 C-3.13191749 12.34008135 -3.88348273 12.05825864 -8 10 C-8 7.03 -8 4.06 -8 1 C-5.23749964 -0.38125018 -3.05268901 -0.19079306 0 0 Z " fill="#A0CFC6" transform="translate(147,77)"/>
<path d="M0 0 C2.35448675 -0.05454409 4.70767875 -0.0939279 7.0625 -0.125 C9.02896484 -0.15980469 9.02896484 -0.15980469 11.03515625 -0.1953125 C15.19379781 0.00954669 18.13552488 0.51328473 22 2 C22.33 2.99 22.66 3.98 23 5 C27.29 5.66 31.58 6.32 36 7 C36 7.33 36 7.66 36 8 C30.14111182 8.1037992 24.29006074 8.05430485 18.4375 7.75 C17.44621094 7.70359375 16.45492187 7.6571875 15.43359375 7.609375 C13 7 13 7 11.78515625 5.015625 C11.52605469 4.35046875 11.26695313 3.6853125 11 3 C8.70370006 1.85185003 6.92301914 1.69230191 4.375 1.4375 C3.55773437 1.35371094 2.74046875 1.26992187 1.8984375 1.18359375 C1.27195312 1.12300781 0.64546875 1.06242188 0 1 C0 0.67 0 0.34 0 0 Z " fill="#B286E2" transform="translate(79,153)"/>
<path d="M0 0 C0.66 0 1.32 0 2 0 C0.05474691 5.94382888 -1.9853406 11.85124611 -4.0625 17.75 C-4.3198291 18.48275146 -4.5771582 19.21550293 -4.84228516 19.97045898 C-5.87523526 22.89537037 -6.90261159 25.77697056 -8.14453125 28.62109375 C-9.19630616 31.54589248 -9.42083372 34.21597808 -9.625 37.3125 C-9.69976562 38.38113281 -9.77453125 39.44976562 -9.8515625 40.55078125 C-9.90054688 41.35902344 -9.94953125 42.16726562 -10 43 C-10.99 42.67 -11.98 42.34 -13 42 C-13.38793206 35.38994196 -12.12941334 30.47330215 -9.8125 24.3125 C-9.33756104 23.00671997 -9.33756104 23.00671997 -8.85302734 21.67456055 C-7.91586609 19.11098174 -6.96062506 16.55486475 -6 14 C-5.73396973 13.28328125 -5.46793945 12.5665625 -5.19384766 11.828125 C-1.27559932 1.27559932 -1.27559932 1.27559932 0 0 Z " fill="#8740C4" transform="translate(76,82)"/>
<path d="M0 0 C1.9375 0.3125 1.9375 0.3125 4 1 C4.33 1.99 4.66 2.98 5 4 C5.99 4.33 6.98 4.66 8 5 C8.33 6.98 8.66 8.96 9 11 C7.88625 10.566875 7.88625 10.566875 6.75 10.125 C1.57841343 8.57352403 -3.66907548 7.8108526 -9 7 C-9 6.34 -9 5.68 -9 5 C-5.64035843 3.88011948 -3.41909335 4.28019087 0 5 C0.66 4.67 1.32 4.34 2 4 C1.34 2.68 0.68 1.36 0 0 Z " fill="#C98420" transform="translate(167,80)"/>
<path d="M0 0 C3.31865451 3.06337339 5.87740359 6.47281301 8.5390625 10.09375 C10.19467615 12.25401594 12.00081998 14.15460306 14 16 C13.236875 15.814375 12.47375 15.62875 11.6875 15.4375 C8.91032625 14.77180827 8.91032625 14.77180827 6 16 C2.11736749 12.76447291 1.03257023 9.9047086 0 5 C-0.125 2.0625 -0.125 2.0625 0 0 Z " fill="#864EDB" transform="translate(65,131)"/>
<path d="M0 0 C1.98 0.495 1.98 0.495 4 1 C3.01 2.485 3.01 2.485 2 4 C1.81625297 6.62785957 1.74383288 9.1468727 1.76953125 11.7734375 C1.76998947 12.53419586 1.77044769 13.29495422 1.7709198 14.07876587 C1.77393927 15.68761759 1.78181649 17.29646646 1.79418945 18.90527344 C1.81238012 21.35883029 1.81469947 23.81200791 1.81445312 26.265625 C1.81937132 27.83073241 1.82520095 29.39583727 1.83203125 30.9609375 C1.83314407 31.69130219 1.8342569 32.42166687 1.83540344 33.17416382 C1.86985487 36.90378228 2.11115772 40.37281419 3 44 C1.515 44.495 1.515 44.495 0 45 C-1.71532847 3.43065693 -1.71532847 3.43065693 0 0 Z " fill="#9250CA" transform="translate(82,0)"/>
<path d="M0 0 C11.13179928 -0.86181672 26.93494817 -0.03252592 37 5 C36.67 5.66 36.34 6.32 36 7 C35.40574219 6.91435791 34.81148437 6.82871582 34.19921875 6.74047852 C31.4662549 6.34705711 28.73312912 5.95477154 26 5.5625 C25.06542969 5.42779297 24.13085938 5.29308594 23.16796875 5.15429688 C18.96981126 4.55246311 14.77461061 3.96449354 10.5625 3.46875 C6.82288516 2.97669542 3.5834641 2.11983253 0 1 C0 0.67 0 0.34 0 0 Z " fill="#894AD4" transform="translate(134,154)"/>
<path d="M0 0 C0.98464547 2.6078186 1.1236295 3.68962214 0.07421875 6.32421875 C-0.38339844 7.10410156 -0.84101562 7.88398437 -1.3125 8.6875 C-1.98732422 9.86892578 -1.98732422 9.86892578 -2.67578125 11.07421875 C-4 13 -4 13 -6 14 C-6.02706445 16.89589652 -6.04687029 19.79153795 -6.0625 22.6875 C-6.07087891 23.50412109 -6.07925781 24.32074219 -6.08789062 25.16210938 C-6.10442051 29.24499084 -6.03035098 33.01651707 -5 37 C-5.99 37.495 -5.99 37.495 -7 38 C-9.09988561 33.80022878 -8.78073595 28.62141143 -9 24 C-9.03996094 23.16726562 -9.07992187 22.33453125 -9.12109375 21.4765625 C-8.91529517 13.21717943 -4.28841395 6.7794061 0 0 Z " fill="#672AA6" transform="translate(54,104)"/>
<path d="M0 0 C7.47498265 3.2773682 11.58872052 10.91503493 15 18 C14.34 18.66 13.68 19.32 13 20 C12.67 19.01 12.34 18.02 12 17 C11.34 17 10.68 17 10 17 C9.71125 16.360625 9.4225 15.72125 9.125 15.0625 C8.17176549 12.84793921 8.17176549 12.84793921 6 12 C5.375 9.4375 5.375 9.4375 5 7 C4.34 7 3.68 7 3 7 C2.67 5.68 2.34 4.36 2 3 C1.34 3 0.68 3 0 3 C0 2.01 0 1.02 0 0 Z " fill="#8246D4" transform="translate(128,101)"/>
<path d="M0 0 C0.66 0.66 1.32 1.32 2 2 C3.99172182 2.69100553 5.99161804 3.35902703 8 4 C8.33 4.33 8.66 4.66 9 5 C8.93579251 6.62853535 8.7987936 8.25449212 8.625 9.875 C8.53476562 10.75929688 8.44453125 11.64359375 8.3515625 12.5546875 C8 15 8 15 7 18 C6.34 18 5.68 18 5 18 C5 19.65 5 21.3 5 23 C4.34 22.67 3.68 22.34 3 22 C3.42644435 18.50315637 4.12073474 15.50886637 5.5625 12.3125 C7.19904656 9.14315486 7.19904656 9.14315486 7 6 C4.69 6 2.38 6 0 6 C0 4.02 0 2.04 0 0 Z " fill="#CF8313" transform="translate(8,56)"/>
<path d="M0 0 C0.33 0.66 0.66 1.32 1 2 C0 5 0 5 -2.21484375 6.38671875 C-3.56255859 7.03060547 -3.56255859 7.03060547 -4.9375 7.6875 C-6.28134766 8.34298828 -6.28134766 8.34298828 -7.65234375 9.01171875 C-10 10 -10 10 -12 10 C-12.33 10.99 -12.66 11.98 -13 13 C-13.33 12.01 -13.66 11.02 -14 10 C-10.93500455 4.45381775 -5.53633591 2.48289874 0 0 Z " fill="#7D38B3" transform="translate(81,0)"/>
<path d="M0 0 C0 0.66 0 1.32 0 2 C2.31 2.33 4.62 2.66 7 3 C7 3.33 7 3.66 7 4 C0.73 4 -5.54 4 -12 4 C-12.33 3.34 -12.66 2.68 -13 2 C-11.39935157 1.46845258 -9.79431126 0.95011647 -8.1875 0.4375 C-7.29417969 0.14746094 -6.40085937 -0.14257812 -5.48046875 -0.44140625 C-3 -1 -3 -1 0 0 Z " fill="#4A13BA" transform="translate(67,78)"/>
<path d="M0 0 C2.625 0.375 2.625 0.375 5 1 C5.625 3.375 5.625 3.375 6 6 C5.34 6.66 4.68 7.32 4 8 C1.375 7.625 1.375 7.625 -1 7 C-1.625 4.625 -1.625 4.625 -2 2 C-1.34 1.34 -0.68 0.68 0 0 Z " fill="#A3D1C0" transform="translate(35,61)"/>
<path d="M0 0 C0.66 0.99 1.32 1.98 2 3 C0.27840626 4.94470746 -1.45166256 6.88057309 -3.1875 8.8125 C-3.67025391 9.35970703 -4.15300781 9.90691406 -4.65039062 10.47070312 C-7.51496216 13.64287965 -10.15659006 15.99749208 -14 18 C-12.37278635 14.28570797 -10.05329514 11.38358949 -7.5 8.25 C-6.7059375 7.26515625 -5.911875 6.2803125 -5.09375 5.265625 C-4.4028125 4.51796875 -3.711875 3.7703125 -3 3 C-2.34 3 -1.68 3 -1 3 C-0.67 2.01 -0.34 1.02 0 0 Z " fill="#7A41D1" transform="translate(81,43)"/>
<path d="M0 0 C3.32382587 4.33542505 4.12018668 6.47141274 4 12 C3.67 11.34 3.34 10.68 3 10 C0.66255706 9.53193355 -1.69739079 9.17330206 -4.0625 8.875 C-5.35285156 8.70742187 -6.64320313 8.53984375 -7.97265625 8.3671875 C-8.97167969 8.24601563 -9.97070312 8.12484375 -11 8 C-11 7.67 -11 7.34 -11 7 C-9.37509046 6.97301811 -7.75005367 6.95361243 -6.125 6.9375 C-5.22007812 6.92589844 -4.31515625 6.91429687 -3.3828125 6.90234375 C-1 7 -1 7 1 8 C1 7.34 1 6.68 1 6 C0.01 5.67 -0.98 5.34 -2 5 C-2 3.68 -2 2.36 -2 1 C-1.34 0.67 -0.68 0.34 0 0 Z " fill="#7B2FC7" transform="translate(168,149)"/>
<path d="M0 0 C0.85039667 2.38111068 1.07366994 3.71350578 0.4375 6.1875 C-1 8 -1 8 -4.125 8.75 C-5.548125 8.87375 -5.548125 8.87375 -7 9 C-8.33332095 6.3333581 -7.67102033 4.83319697 -7 2 C-5.33388095 1.957279 -3.66617115 1.95936168 -2 2 C-1.67 2.33 -1.34 2.66 -1 3 C-0.67 2.01 -0.34 1.02 0 0 Z " fill="#A6D3CE" transform="translate(20,94)"/>
<path d="M0 0 C12.66970387 -0.18451025 12.66970387 -0.18451025 18 1 C18 1.66 18 2.32 18 3 C14 3 10 3 6 3 C6 3.66 6 4.32 6 5 C4.125 4.75 4.125 4.75 2 4 C0.8671875 1.953125 0.8671875 1.953125 0 0 Z " fill="#DFA554" transform="translate(163,79)"/>
<path d="M0 0 C1.89646998 0.11493757 3.79218332 0.24239642 5.6875 0.375 C6.74324219 0.44460937 7.79898438 0.51421875 8.88671875 0.5859375 C11.90677269 0.98760089 14.24078054 1.74069019 17 3 C17 3.33 17 3.66 17 4 C12.83861737 4.08159574 9.0527516 3.98248524 5 3 C4.01 4.485 4.01 4.485 3 6 C0 2.25 0 2.25 0 0 Z " fill="#DA9D3E" transform="translate(158,87)"/>
<path d="M0 0 C0.66 0 1.32 0 2 0 C2 0.99 2 1.98 2 3 C2.66 3 3.32 3 4 3 C4.33 5.64 4.66 8.28 5 11 C2.525 10.01 2.525 10.01 0 9 C0 6.03 0 3.06 0 0 Z " fill="#78B0BA" transform="translate(139,78)"/>
<path d="M0 0 C1.98 0 3.96 0 6 0 C5.01 1.485 5.01 1.485 4 3 C3.01 3 2.02 3 1 3 C0.896875 3.7425 0.79375 4.485 0.6875 5.25 C-0.04933797 8.1973519 -0.94799142 9.78383074 -3 12 C-3.66 12 -4.32 12 -5 12 C-5 10.68 -5 9.36 -5 8 C-4.34 8 -3.68 8 -3 8 C-2.01 5.36 -1.02 2.72 0 0 Z " fill="#DBA647" transform="translate(18,67)"/>
<path d="M0 0 C1.65 0 3.3 0 5 0 C5.38218767 1.65614657 5.71395102 3.32457024 6 5 C5 6 5 6 2.4375 6.0625 C1.2309375 6.0315625 1.2309375 6.0315625 0 6 C0 4.02 0 2.04 0 0 Z " fill="#9AC8BB" transform="translate(172,106)"/>
<path d="M0 0 C0.33 0 0.66 0 1 0 C1.02505615 0.60996826 1.0501123 1.21993652 1.07592773 1.84838867 C1.1924058 4.62827898 1.31489632 7.4078734 1.4375 10.1875 C1.47681641 11.14720703 1.51613281 12.10691406 1.55664062 13.09570312 C1.59853516 14.02705078 1.64042969 14.95839844 1.68359375 15.91796875 C1.72025146 16.77156982 1.75690918 17.6251709 1.79467773 18.50463867 C2.00531094 21.06454594 2.44841536 23.49333243 3 26 C2.01 26.33 1.02 26.66 0 27 C0 18.09 0 9.18 0 0 Z " fill="#894BD0" transform="translate(82,18)"/>
<path d="M0 0 C2.375 -0.1875 2.375 -0.1875 5 0 C7.91031589 4.36547384 6.8703944 7.98525061 6 13 C4.9375 16.125 4.9375 16.125 4 18 C3.01 17.34 2.02 16.68 1 16 C1.66 16 2.32 16 3 16 C3.27573092 13.89905026 3.51978976 11.79392365 3.75 9.6875 C3.88921875 8.51574219 4.0284375 7.34398438 4.171875 6.13671875 C4.35130027 2.90459441 4.35130027 2.90459441 2.015625 1.08203125 C1.35046875 0.72496094 0.6853125 0.36789063 0 0 Z " fill="#D99823" transform="translate(12,58)"/>
<path d="M0 0 C9.84375 9.5625 9.84375 9.5625 10.3125 13.875 C10.1578125 14.926875 10.1578125 14.926875 10 16 C8 15 8 15 6.6875 12.3125 C5.32635219 9.64061726 4.24313367 7.99400697 2.3125 5.8125 C0 3 0 3 0 0 Z " fill="#8C59D2" transform="translate(155,136)"/>
<path d="M0 0 C0.99 0 1.98 0 3 0 C5.42857143 6.28571429 5.42857143 6.28571429 4 10 C0.38860104 6.12435233 0.38860104 6.12435233 -1 4 C-0.8125 1.625 -0.8125 1.625 0 0 Z " fill="#D49743" transform="translate(169,67)"/>
<path d="M0 0 C2.31 0 4.62 0 7 0 C3.25 3 3.25 3 1 3 C0.9175 3.763125 0.835 4.52625 0.75 5.3125 C-0.14615794 8.52373261 -1.21611025 9.29374499 -4 11 C-3.52269162 9.5410574 -3.04308958 8.08286504 -2.5625 6.625 C-2.29566406 5.81289062 -2.02882813 5.00078125 -1.75390625 4.1640625 C-1 2 -1 2 0 0 Z " fill="#D7A75B" transform="translate(8,62)"/>
<path d="M0 0 C1.875 0.3125 1.875 0.3125 4 1 C6 4 6 4 6 8 C3.46414701 6.98565881 2.21863205 6.34981128 0.75 4 C0 2 0 2 0 0 Z " fill="#D2871F" transform="translate(162,89)"/>
<path d="M0 0 C6.93 0.495 6.93 0.495 14 1 C14 1.99 14 2.98 14 4 C6.575 3.01 6.575 3.01 -1 2 C-0.67 1.34 -0.34 0.68 0 0 Z " fill="#7834B6" transform="translate(49,81)"/>
<path d="M0 0 C2.875 -0.125 2.875 -0.125 6 0 C6.66 0.66 7.32 1.32 8 2 C7.625 4.125 7.625 4.125 7 6 C6.21625 5.67 5.4325 5.34 4.625 5 C2.15667503 3.88133489 2.15667503 3.88133489 0 4 C0 2.68 0 1.36 0 0 Z " fill="#9CC7B1" transform="translate(141,77)"/>
<path d="M0 0 C0.66 0.33 1.32 0.66 2 1 C2 1.66 2 2.32 2 3 C2.66 3.33 3.32 3.66 4 4 C3.34 4 2.68 4 2 4 C1.731875 5.11375 1.46375 6.2275 1.1875 7.375 C0 11 0 11 -3 13 C-3 12.01 -3 11.02 -3 10 C-2.34 10 -1.68 10 -1 10 C-1.0309375 8.3603125 -1.0309375 8.3603125 -1.0625 6.6875 C-1 3 -1 3 0 0 Z " fill="#D69F4C" transform="translate(27,71)"/>
<path d="M0 0 C3.33333333 3.33333333 6.66666667 6.66666667 10 10 C3.52085747 8.65527231 3.52085747 8.65527231 1.0625 5.5625 C0 3 0 3 0 0 Z " fill="#823ED7" transform="translate(69,137)"/>
<path d="M0 0 C5.44693314 -0.09688221 10.63904667 -0.12862175 16 1 C15.67 1.66 15.34 2.32 15 3 C9.5814234 3.22577402 5.22512279 2.46670113 0 1 C0 0.67 0 0.34 0 0 Z " fill="#DBA14B" transform="translate(155,97)"/>
<path d="M0 0 C0 3.63 0 7.26 0 11 C-0.33 11 -0.66 11 -1 11 C-1 8.69 -1 6.38 -1 4 C-3.97 3.505 -3.97 3.505 -7 3 C-7 2.34 -7 1.68 -7 1 C-5 0 -5 0 0 0 Z " fill="#CF7D11" transform="translate(7,52)"/>
<path d="M0 0 C2.76050338 2.76050338 2.46674524 5.20055984 3 9 C3.99 10.485 3.99 10.485 5 12 C1.74456771 11.65120368 0.98126893 10.97866739 -1.25 8.4375 C-1.8275 7.633125 -2.405 6.82875 -3 6 C-2.34 6 -1.68 6 -1 6 C-0.67 4.02 -0.34 2.04 0 0 Z " fill="#6126C7" transform="translate(149,132)"/>
<path d="M0 0 C2.31 0.33 4.62 0.66 7 1 C7 1.33 7 1.66 7 2 C8.65 2.33 10.3 2.66 12 3 C12 3.33 12 3.66 12 4 C8.7 4.33 5.4 4.66 2 5 C0 1 0 1 0 0 Z " fill="#B384E3" transform="translate(90,155)"/>
<path d="M0 0 C0.90492187 0.02320313 1.80984375 0.04640625 2.7421875 0.0703125 C4.10730469 0.09738281 4.10730469 0.09738281 5.5 0.125 C6.19867188 0.14820313 6.89734375 0.17140625 7.6171875 0.1953125 C7.2871875 1.1853125 6.9571875 2.1753125 6.6171875 3.1953125 C2.9871875 2.8653125 -0.6428125 2.5353125 -4.3828125 2.1953125 C-2.3828125 0.1953125 -2.3828125 0.1953125 0 0 Z " fill="#DFC2E8" transform="translate(77.3828125,154.8046875)"/>
<path d="M0 0 C0 0.99 0 1.98 0 3 C-2.64 3 -5.28 3 -8 3 C-8 2.01 -8 1.02 -8 0 C-5.13822943 -1.43088528 -3.06624227 -0.59991697 0 0 Z " fill="#C9782E" transform="translate(171,76)"/>
<path d="M0 0 C1.60031344 3.20062687 0.03173691 5.72271806 -1 9 C-1.66 9 -2.32 9 -3 9 C-3 10.65 -3 12.3 -3 14 C-3.66 13.67 -4.32 13.34 -5 13 C-4.48474397 7.71862571 -2.74522883 4.42778844 0 0 Z " fill="#C67916" transform="translate(16,65)"/>
<path d="M0 0 C0 0.66 0 1.32 0 2 C0.66 2.33 1.32 2.66 2 3 C-1.3 2.67 -4.6 2.34 -8 2 C-8 1.34 -8 0.68 -8 0 C-5.13822943 -1.43088528 -3.06624227 -0.59991697 0 0 Z " fill="#CE9026" transform="translate(166,85)"/>
<path d="M0 0 C0.99 0.495 0.99 0.495 2 1 C2.40197001 3.32249342 2.72686657 5.65885633 3 8 C3.31966139 9.66934283 3.64731066 11.3373217 4 13 C3.01 13.495 3.01 13.495 2 14 C0.64908472 11.29816945 0.66141942 8.88191794 0.4375 5.875 C0.35371094 4.77929688 0.26992188 3.68359375 0.18359375 2.5546875 C0.12300781 1.71164063 0.06242187 0.86859375 0 0 Z " fill="#5928A1" transform="translate(45,128)"/>
<path d="M0 0 C0.66 0.33 1.32 0.66 2 1 C0.625 3.5 0.625 3.5 -1 6 C-1.66 6 -2.32 6 -3 6 C-3.66 7.65 -4.32 9.3 -5 11 C-5.68359375 9.234375 -5.68359375 9.234375 -6 7 C-4.78515625 5.078125 -4.78515625 5.078125 -3.0625 3.25 C-2.49660156 2.63640625 -1.93070312 2.0228125 -1.34765625 1.390625 C-0.90292969 0.93171875 -0.45820312 0.4728125 0 0 Z " fill="#7327AC" transform="translate(67,45)"/>
<path d="M0 0 C0.99 0 1.98 0 3 0 C1.47291037 3.43595166 -0.59927045 6.11912454 -3 9 C-2.25 2.25 -2.25 2.25 0 0 Z " fill="#8BB99A" transform="translate(11,90)"/>
<path d="M0 0 C3.3 0.33 6.6 0.66 10 1 C10 1.66 10 2.32 10 3 C2.25 3.125 2.25 3.125 0 2 C0 1.34 0 0.68 0 0 Z " fill="#D89F37" transform="translate(171,79)"/>
<path d="M0 0 C0.99 0 1.98 0 3 0 C3 2.97 3 5.94 3 9 C2.01 8.67 1.02 8.34 0 8 C0 5.36 0 2.72 0 0 Z " fill="#7A37C9" transform="translate(63,116)"/>
<path d="M0 0 C2.475 0.495 2.475 0.495 5 1 C4.67 2.65 4.34 4.3 4 6 C2.62437146 4.71034824 1.29233607 3.37310707 0 2 C0 1.34 0 0.68 0 0 Z " fill="#DDA86B" transform="translate(158,87)"/>
<path d="M0 0 C0 0.66 0 1.32 0 2 C-3.63 2 -7.26 2 -11 2 C-4.2 -1.4 -4.2 -1.4 0 0 Z " fill="#4E16C4" transform="translate(67,78)"/>
<path d="M0 0 C0.66 0 1.32 0 2 0 C1.67 2.31 1.34 4.62 1 7 C0.01 6.67 -0.98 6.34 -2 6 C-1.125 1.125 -1.125 1.125 0 0 Z " fill="#91BFA6" transform="translate(35,61)"/>
<path d="M0 0 C0.99 0.33 1.98 0.66 3 1 C2.34 5.29 1.68 9.58 1 14 C0.14778004 10.59112017 -0.10783755 8.19565369 -0.0625 4.75 C-0.05347656 3.85796875 -0.04445313 2.9659375 -0.03515625 2.046875 C-0.02355469 1.37140625 -0.01195312 0.6959375 0 0 Z " fill="#D79527" transform="translate(6,53)"/>
<path d="M0 0 C0.99 0.33 1.98 0.66 3 1 C4.1875 3.5625 4.1875 3.5625 5 6 C2.525 5.01 2.525 5.01 0 4 C0 2.68 0 1.36 0 0 Z " fill="#9060E2" transform="translate(68,141)"/>
<path d="M0 0 C1.98 0 3.96 0 6 0 C6 0.66 6 1.32 6 2 C4.02 2.66 2.04 3.32 0 4 C0 2.68 0 1.36 0 0 Z " fill="#C8853C" transform="translate(154,94)"/>
<path d="M0 0 C1.9375 0.3125 1.9375 0.3125 4 1 C4.33 1.99 4.66 2.98 5 4 C5.66 4.33 6.32 4.66 7 5 C5.35 5 3.7 5 2 5 C1.34 3.35 0.68 1.7 0 0 Z " fill="#E18F0C" transform="translate(167,80)"/>
<path d="M0 0 C0.99 0.33 1.98 0.66 3 1 C2.67 2.65 2.34 4.3 2 6 C1.01 6 0.02 6 -1 6 C-0.67 4.02 -0.34 2.04 0 0 Z " fill="#BC7822" transform="translate(2,67)"/>
</svg>
