<svg xmlns="http://www.w3.org/2000/svg" width="49.879" height="78.629" viewBox="0 0 49.879 78.629">
  <path id="Path_7517" data-name="Path 7517" d="M-24.088-151.164q11.233,0,18,5.879T.687-128.7q0,9.868-6.456,15.379T-22.828-107.7l-.525,7.873H-39.1l-.525-19.526h6.3q8.083,0,12.335-1.995t4.252-7.243a8.042,8.042,0,0,0-1.995-5.774,7.307,7.307,0,0,0-5.564-2.1,7.836,7.836,0,0,0-5.879,2.152,7.985,7.985,0,0,0-2.1,5.826h-16.9A21.684,21.684,0,0,1-46.5-140.036a20.406,20.406,0,0,1,8.608-8.136A29.461,29.461,0,0,1-24.088-151.164Zm-6.929,78.629a10.88,10.88,0,0,1-7.716-2.782,9.014,9.014,0,0,1-2.992-6.876,9.3,9.3,0,0,1,2.992-7.034,10.763,10.763,0,0,1,7.716-2.834,10.622,10.622,0,0,1,7.611,2.834,9.3,9.3,0,0,1,2.992,7.034,9.014,9.014,0,0,1-2.992,6.876A10.737,10.737,0,0,1-31.016-72.535Z" transform="translate(49.192 151.164)" fill="#fff"/>
</svg>
